<?xml version="1.0" encoding="UTF-8"?>
<svg version="1.1" xmlns="http://www.w3.org/2000/svg" width="512" height="512">
<path d="M0 0 C3.64074297 3.11668826 7.35124221 6.14450372 11.06640625 9.171875 C20.6711463 17.00474825 30.23738236 24.88026879 39.67529297 32.91357422 C43.57364114 36.22293683 47.55025932 39.41940773 51.55859375 42.59375 C54.54639043 45.00662217 57.46728072 47.49374204 60.38671875 49.98828125 C64.84311055 53.79322291 69.37843562 57.46376537 74.01171875 61.05078125 C79.78161678 65.52358294 85.31261747 70.22635937 90.79882812 75.04150391 C94.29764084 78.10617748 97.84023129 81.06702244 101.51171875 83.92578125 C121.17981634 99.56273157 132.93086669 121.16531115 135.92906952 146.06393623 C136.41279265 152.14828257 136.29369512 158.26856136 136.29785156 164.36889648 C136.30248654 165.95823785 136.3075121 167.54757811 136.31289673 169.13691711 C136.32596121 173.43910012 136.33245454 177.74126756 136.33690739 182.04346728 C136.33984903 184.73921142 136.34395594 187.43495141 136.34841156 190.13069344 C136.36207363 198.58771284 136.37174541 207.04472264 136.37561345 215.50175232 C136.38008483 225.22124051 136.39759531 234.94058742 136.42661405 244.66003269 C136.44833394 252.20010293 136.45832327 259.74013373 136.45965457 267.28023487 C136.46069567 271.7704657 136.46645299 276.26056351 136.48447418 280.75076103 C136.50113322 284.9837307 136.50302541 289.21646991 136.49433517 293.44946098 C136.49357411 294.98877588 136.49778186 296.5281041 136.50779343 298.06738663 C136.6802022 326.26737666 128.41397939 350.70422575 108.609375 371.3046875 C101.78278323 377.87064581 94.5243786 382.4346169 86.13671875 386.67578125 C85.15960938 387.17078125 84.1825 387.66578125 83.17578125 388.17578125 C67.31295693 395.47702641 50.10949972 395.15576871 33.01489258 395.06689453 C29.31359437 395.05073486 25.61337568 395.06686007 21.91210938 395.0859375 C19.52213305 395.08395609 17.13215738 395.08011452 14.7421875 395.07421875 C13.65439499 395.08029144 12.56660248 395.08636414 11.44584656 395.09262085 C-1.98377425 394.971135 -13.14440305 391.77556854 -23.15234375 382.5703125 C-34.72795226 370.32271174 -36.15028453 357.00644472 -36.1682415 340.87436295 C-36.17194027 338.19888266 -36.18876167 335.52376159 -36.20899963 332.84835815 C-36.26407736 325.24744376 -36.29503654 317.64647813 -36.31958008 310.04541016 C-36.33554635 305.37944565 -36.365855 300.7137389 -36.40434456 296.04790878 C-36.41591015 294.28189729 -36.42192416 292.51583955 -36.42202568 290.74979019 C-36.4233437 273.92565505 -38.5431784 260.64776242 -50.4453125 248.0078125 C-58.22657581 240.50310459 -66.90107102 236.78277642 -77.73828125 236.23828125 C-90.35968892 236.70053026 -99.60202854 242.0216125 -108.05078125 250.92578125 C-118.19497344 262.80385304 -119.15152543 275.45815547 -119.1682415 290.44663429 C-119.1719413 293.11818871 -119.18876606 295.78938371 -119.20899963 298.46086121 C-119.26406326 306.05074338 -119.29501424 313.64067709 -119.31958008 321.23071289 C-119.33556159 325.89019792 -119.36588717 330.54942571 -119.40434456 335.20877647 C-119.41589846 336.97117038 -119.42192406 338.73361047 -119.42202568 340.49604225 C-119.42327058 356.33979592 -120.74668594 369.76423236 -131.96875 381.96484375 C-143.18839828 392.56890071 -155.19610542 394.98893709 -170.17578125 394.9765625 C-171.34351074 394.98084763 -172.51124023 394.98513275 -173.71435547 394.98954773 C-176.17854162 394.99526898 -178.64274465 394.99580763 -181.10693359 394.99145508 C-184.82419693 394.98831427 -188.54064841 395.01171689 -192.2578125 395.03710938 C-209.6996955 395.08411288 -225.94042129 394.58090692 -241.86328125 386.67578125 C-243.24580078 386.01255859 -243.24580078 386.01255859 -244.65625 385.3359375 C-266.17143611 374.38109662 -280.17881401 355.10482 -287.86328125 332.67578125 C-291.44296903 320.73416655 -292.0159809 309.35985726 -292.02441406 296.98266602 C-292.02904904 295.39332465 -292.0340746 293.80398439 -292.03945923 292.21464539 C-292.05252371 287.91246238 -292.05901704 283.61029494 -292.06346989 279.30809522 C-292.06641153 276.61235108 -292.07051844 273.91661109 -292.07497406 271.22086906 C-292.08863613 262.76384966 -292.09830791 254.30683986 -292.10217595 245.84981018 C-292.10664733 236.13032199 -292.12415781 226.41097508 -292.15317655 216.69152981 C-292.17489644 209.15145957 -292.18488577 201.61142877 -292.18621707 194.07132763 C-292.18725817 189.5810968 -292.19301549 185.09099899 -292.21103668 180.60080147 C-292.22769572 176.3678318 -292.22958791 172.13509259 -292.22089767 167.90210152 C-292.22013661 166.36278662 -292.22434436 164.8234584 -292.23435593 163.28417587 C-292.41043387 134.48403863 -283.73011986 109.93720204 -263.42578125 88.98828125 C-259.67898283 85.33207899 -255.72406298 82.05639061 -251.59765625 78.83984375 C-248.45733049 76.35450022 -245.40927287 73.77508664 -242.36328125 71.17578125 C-237.79449561 67.2844911 -233.1615333 63.49647443 -228.45703125 59.76953125 C-225.38248776 57.28767084 -222.37149081 54.73729612 -219.36328125 52.17578125 C-214.78905936 48.28079416 -210.15168085 44.4880461 -205.44140625 40.7578125 C-202.45360957 38.34494033 -199.53271928 35.85782046 -196.61328125 33.36328125 C-192.15688945 29.55833959 -187.62156438 25.88779713 -182.98828125 22.30078125 C-177.2152407 17.82554349 -171.68663367 13.1147945 -166.19018555 8.30566406 C-162.02006847 4.66205217 -157.79770756 1.11531525 -153.4375 -2.30078125 C-151.48238032 -3.83758246 -149.5536708 -5.39406812 -147.6328125 -6.97265625 C-100.04739212 -45.75711632 -44.63340319 -38.24295318 0 0 Z " fill="#FFFFFF" transform="translate(333.86328125,75.32421875)"/>
</svg>
