<?xml version="1.0" encoding="UTF-8"?>
<svg version="1.1" xmlns="http://www.w3.org/2000/svg" width="512" height="512">
<path d="M0 0 C0.92079694 -0.00445784 1.84159388 -0.00891569 2.79029375 -0.01350862 C3.79834942 -0.01332426 4.80640509 -0.01313989 5.8450079 -0.01294994 C6.9187222 -0.01662663 7.99243649 -0.02030332 9.09868759 -0.02409142 C12.70895163 -0.03513473 16.31918689 -0.03897323 19.92946529 -0.04278088 C22.51316068 -0.04904507 25.09685517 -0.05569183 27.68054867 -0.0626936 C35.44318026 -0.08244372 43.20581313 -0.09252288 50.96846357 -0.10142139 C54.62657134 -0.10580712 58.28467767 -0.11117323 61.94278431 -0.11641026 C74.10789248 -0.13342194 86.27299975 -0.14791489 98.43811798 -0.155159 C101.59408793 -0.15706881 104.75005787 -0.15898915 107.90602779 -0.16094494 C108.69040267 -0.16142868 109.47477755 -0.16191242 110.28292137 -0.16241082 C122.9820055 -0.17070658 135.6809953 -0.19603606 148.38003827 -0.22852562 C161.42621307 -0.26163034 174.47234 -0.27961088 187.51855701 -0.28280324 C194.84011621 -0.2849653 202.16153789 -0.29366917 209.48305607 -0.31926441 C216.37362897 -0.34329781 223.26395104 -0.34677567 230.15455723 -0.33650303 C232.68005095 -0.3360077 235.20555686 -0.34232717 237.7310133 -0.35605907 C241.18670535 -0.37379371 244.64151183 -0.36666302 248.09720516 -0.35352612 C249.08964578 -0.36449536 250.08208639 -0.37546461 251.10460097 -0.38676625 C262.87036462 -0.27925267 272.92107375 4.22694948 281.57570553 12.09906483 C289.18208755 19.96136251 293.53101578 30.05937931 293.54977036 40.99650288 C293.5542282 42.20232155 293.55868604 43.40814023 293.56327897 44.65049887 C293.56318968 45.99032848 293.56299983 47.33015809 293.5627203 48.66998768 C293.56602002 50.09206953 293.56974582 51.51415045 293.57386178 52.93623018 C293.58387785 56.84897138 293.58759795 60.76169724 293.59025109 64.67444944 C293.59415537 68.89278693 293.60373371 73.11111228 293.61246395 77.32944202 C293.63222611 87.51998461 293.64229481 97.71052818 293.65119174 107.90108514 C293.65557554 112.7012048 293.66094216 117.50132336 293.66618061 122.30144215 C293.68319357 138.26075734 293.697687 154.22007185 293.70492935 170.17939472 C293.70683922 174.32091237 293.70875955 178.46243001 293.71071529 182.60394764 C293.71119903 183.63329062 293.71168277 184.6626336 293.71218117 185.72316879 C293.72047868 202.39201383 293.74581059 219.06078704 293.77829597 235.72960073 C293.81138368 252.84721459 293.82937971 269.96479198 293.83257359 287.08243799 C293.83473723 296.69164801 293.84346441 306.30075331 293.86903477 315.90993214 C293.89076524 324.09499131 293.89878068 332.27992035 293.88906799 340.4650051 C293.88452992 344.63867047 293.88638055 348.81206746 293.90582943 352.98569584 C293.92350975 356.81299142 293.92242439 360.63982381 293.90693214 364.46712464 C293.90344854 366.4941028 293.91954599 368.5210861 293.93653661 370.54799604 C293.84509734 383.61968809 290.3802379 394.62541616 281.41554928 404.29047108 C273.51977574 411.84785432 264.21761973 416.26999764 253.27004147 416.24774647 C252.02905697 416.24767094 250.78807247 416.24759541 249.50948238 416.24751759 C248.16046261 416.24241139 246.81144324 416.2371954 245.46242428 416.23187733 C244.07808642 416.23001132 242.6937479 416.22858828 241.30940914 416.22758961 C237.6729362 416.22377881 234.03650345 416.21396083 230.40004635 416.20288563 C226.68646952 416.19264058 222.97288618 416.18808536 219.25929928 416.1830492 C211.97803099 416.17233723 204.69679578 416.15527811 197.41554928 416.13422108 C197.43649654 416.8601244 197.45744381 417.58602772 197.47902584 418.33392811 C197.56248578 421.64221663 197.61430466 424.95028318 197.66554928 428.25922108 C197.71582272 429.97238514 197.71582272 429.97238514 197.76711178 431.72015858 C197.89064725 442.34420881 197.89064725 442.34420881 193.41554928 447.13422108 C189.65318189 449.01540477 185.50936819 448.69573611 181.41554928 448.13422108 C178.314502 446.7610585 175.81431184 444.85910947 173.16554928 442.75922108 C172.44536617 442.22208485 171.72518307 441.68494862 170.98317623 441.13153553 C168.77833975 439.48536431 166.59661813 437.81169998 164.41554928 436.13422108 C162.42912611 434.63210858 160.43678334 433.14005299 158.43019772 431.6649828 C157.23733086 430.78802483 156.05380164 429.89818043 154.88136959 428.99408436 C151.98838776 426.71052306 151.98838776 426.71052306 148.48122311 426.36371326 C146.16292103 427.22845282 144.49432878 428.31802381 142.50929928 429.79437733 C141.771311 430.33747547 141.03332272 430.88057362 140.27297115 431.44012928 C139.49502193 432.01980457 138.71707272 432.59947987 137.91554928 433.19672108 C136.29123279 434.37995162 134.66623173 435.56224297 133.04054928 436.74359608 C130.31611919 438.73367245 127.60843557 440.74241886 124.91554928 442.77484608 C119.52756528 446.675522 115.36708519 449.32776278 108.54836178 448.73578358 C105.11775928 447.76817774 103.45979185 445.96978335 101.41554928 443.13422108 C100.37607178 440.01578858 100.3006009 437.85946521 100.31789303 434.59125233 C100.32111568 433.5181078 100.32433834 432.44496326 100.32765865 431.3392992 C100.33603756 430.21974842 100.34441647 429.10019764 100.35304928 427.94672108 C100.357561 426.81556873 100.36207272 425.68441639 100.36672115 424.5189867 C100.3785143 421.72401181 100.39497278 418.92914288 100.41554928 416.13422108 C98.47901737 416.14754475 98.47901737 416.14754475 96.50336361 416.16113758 C84.30715498 416.24239939 72.11100164 416.30227096 59.91458321 416.34146976 C53.64501461 416.36230009 47.37566544 416.3905348 41.10622311 416.43597889 C35.05023017 416.4795986 28.99444765 416.50339242 22.93830967 416.51373005 C20.63355671 416.52109247 18.32881462 416.5354693 16.0241518 416.5571413 C12.78351938 416.58638908 9.54374466 416.59016809 6.30300045 416.58832264 C5.36072094 416.60270374 4.41844143 416.61708485 3.44760799 416.63190174 C-7.05570812 416.56763104 -15.73193456 413.03441081 -23.58445072 406.13422108 C-24.1903101 405.63277576 -24.79616947 405.13133045 -25.42038822 404.61468983 C-31.5370079 399.1257582 -35.98049778 391.2246825 -37.58445072 383.13422108 C-37.67764767 381.16006502 -37.71532357 379.18302832 -37.7186718 377.20667648 C-37.72312964 375.98630753 -37.72758749 374.76593857 -37.73218042 373.50858873 C-37.73209112 372.1523491 -37.73190128 370.79610948 -37.73162174 369.43986988 C-37.73492141 368.00057614 -37.73864719 366.56128333 -37.74276322 365.12199169 C-37.75277978 361.1617136 -37.75649947 357.20145067 -37.75915253 353.2411617 C-37.76305663 348.9717182 -37.77263494 344.70228669 -37.78136539 340.43285084 C-37.80112737 330.11921271 -37.81119592 319.8055736 -37.82009318 309.49192128 C-37.82447674 304.63439135 -37.8298434 299.77686252 -37.83508205 294.91933346 C-37.85209448 278.77043446 -37.86658831 262.62153613 -37.8738308 246.47262955 C-37.87574067 242.28194586 -37.87766101 238.09126217 -37.87961674 233.9005785 C-37.88010048 232.85901075 -37.88058422 231.817443 -37.88108262 230.74431259 C-37.88938163 213.87433009 -37.91471632 197.00441853 -37.94719741 180.134467 C-37.98027707 162.81232573 -37.9982804 145.4902205 -38.00147504 128.16804749 C-38.00363935 118.4431748 -38.01237646 108.71840554 -38.03793621 98.99356365 C-38.05965561 90.71076017 -38.06768754 82.42808524 -38.05796943 74.14525651 C-38.05342825 69.92108463 -38.05530021 65.69717791 -38.07473087 61.47304249 C-38.09238869 57.60077391 -38.09134391 53.72896344 -38.07583358 49.85668982 C-38.07346145 48.46092418 -38.07776054 47.0651266 -38.08966223 45.66940968 C-38.18894256 33.2507172 -35.87452976 23.56845145 -27.58445072 14.13422108 C-27.08300541 13.5283617 -26.5815601 12.92250233 -26.06491947 12.29828358 C-19.54561242 5.03345966 -9.83294047 0.02213616 0 0 Z M-9.60788822 27.88031483 C-10.05390385 28.43847889 -10.49991947 28.99664295 -10.95945072 29.57172108 C-11.4209351 30.12730701 -11.88241947 30.68289295 -12.35788822 31.25531483 C-15.08638989 35.43496229 -15.83492443 39.08548004 -15.84171963 44.03701973 C-15.84816852 45.22639588 -15.85461741 46.41577202 -15.86126173 47.64118987 C-15.85816452 48.94409113 -15.85506732 50.24699238 -15.85187626 51.5893755 C-15.85561315 52.99042385 -15.86021482 54.39147011 -15.8656069 55.79251307 C-15.87784762 59.64233042 -15.87757518 63.49206094 -15.87521815 67.34189332 C-15.87481026 71.49402179 -15.88584654 75.64612232 -15.89533329 79.7982378 C-15.91195016 87.93302524 -15.91744315 96.0677837 -15.91855805 104.20258669 C-15.9195082 110.81472247 -15.92361686 117.42684868 -15.9299593 124.03898144 C-15.94757362 142.7836799 -15.95679787 161.52835546 -15.95529835 180.27306227 C-15.95521844 181.28371196 -15.95513852 182.29436165 -15.95505619 183.33563709 C-15.95497443 184.34752012 -15.95489267 185.35940316 -15.95480843 186.40194931 C-15.95399549 202.801844 -15.97313473 219.20164685 -16.00133292 235.60151497 C-16.03005506 252.43890322 -16.04387359 269.27624667 -16.04214537 286.11366004 C-16.04148124 295.56734385 -16.04698386 305.0209314 -16.06850147 314.47459316 C-16.08670445 322.52360654 -16.09106789 330.57248002 -16.07748263 338.62150506 C-16.07094847 342.72784418 -16.07085174 346.83391481 -16.08818913 350.94022846 C-16.10390541 354.70128825 -16.10107137 358.46186636 -16.08362086 362.2229143 C-16.07909476 364.22396457 -16.09421964 366.22502969 -16.11010015 368.22602206 C-16.04831825 376.26782815 -15.2456482 381.89149111 -9.83835697 388.15765858 C-3.36965045 393.32664808 1.17997205 394.45718489 9.41554928 394.13422108 C9.21058834 393.47035389 9.0056274 392.8064867 8.79445553 392.12250233 C8.39033443 390.79799061 8.39033443 390.79799061 7.97804928 389.44672108 C7.71121334 388.57660389 7.4443774 387.7064867 7.16945553 386.81000233 C3.9800882 375.49022711 4.59214022 363.79115404 9.89211178 353.17718983 C14.22959004 345.93815647 19.43039133 340.79099304 26.41554928 336.13422108 C26.8668446 333.77952834 26.8668446 333.77952834 26.78469276 330.98427105 C26.79066591 329.88650274 26.79663906 328.78873443 26.8027932 327.65770042 C26.79405468 326.44176834 26.78531616 325.22583626 26.77631283 323.97305775 C26.78015774 322.04714131 26.78015774 322.04714131 26.78408033 320.08231747 C26.79081414 316.5066414 26.77875322 312.931233 26.76374614 309.35559106 C26.7508315 305.50419268 26.75517199 301.6528103 26.75745296 297.80139637 C26.75902861 291.12464138 26.74958912 284.44797411 26.73273945 277.77124119 C26.70839329 268.1177339 26.70054868 258.46426918 26.69677547 248.81073453 C26.69020409 233.14982186 26.67022433 217.48895598 26.64186764 201.82806873 C26.61434482 186.61192529 26.59310255 171.39579453 26.5803442 156.17963123 C26.57916194 154.77354449 26.57916194 154.77354449 26.5779558 153.33905195 C26.57404079 148.63659492 26.57024964 143.93413781 26.56652009 139.23168063 C26.5354028 100.19916135 26.48254835 61.16669429 26.41554928 22.13422108 C22.24912231 22.01718661 18.08312338 21.94669007 13.91554928 21.88422108 C12.7425024 21.85070545 11.56945553 21.81718983 10.36086178 21.78265858 C2.25113072 21.691538 -3.28998792 22.42838156 -9.60788822 27.88031483 Z M48.41554928 22.13422108 C48.41554928 123.77422108 48.41554928 225.41422108 48.41554928 330.13422108 C99.40054928 330.25797108 99.40054928 330.25797108 151.41554928 330.38422108 C167.51658443 330.4388451 167.51658443 330.4388451 183.94289303 330.49457264 C193.56142073 330.50795004 193.56142073 330.50795004 203.17995358 330.51599598 C207.46551953 330.5197239 211.75088747 330.53471893 216.03639889 330.55652332 C221.50443111 330.58397543 226.97217569 330.59218284 232.44027042 330.58651018 C234.44604826 330.58769623 236.45183623 330.59561901 238.45755482 330.6110816 C241.17039619 330.63102249 243.88212489 330.62616627 246.59499264 330.61523914 C247.37688961 330.6268898 248.15878658 330.63854046 248.9643774 330.65054417 C255.39665201 330.58106223 260.50998712 328.59104777 265.43898678 324.42328358 C265.8850024 323.87414295 266.33101803 323.32500233 266.79054928 322.75922108 C267.25203365 322.2152367 267.71351803 321.67125233 268.18898678 321.11078358 C271.93427493 315.07538293 271.70335681 308.93163709 271.68297482 302.0711565 C271.68977148 300.3946518 271.68977148 300.3946518 271.69670546 298.68427831 C271.70937062 294.93732598 271.7077277 291.19051862 271.70607662 287.44354725 C271.71206054 284.75778634 271.71880915 282.07203679 271.72643185 279.38628101 C271.74302954 272.84683558 271.74854083 266.3074262 271.7496566 259.76796146 C271.75060765 254.45114725 271.7547208 249.13434491 271.76105785 243.81753445 C271.77866685 228.73608549 271.78789725 213.65466498 271.78639691 198.57320567 C271.78627704 197.35418589 271.78627704 197.35418589 271.78615475 196.11053944 C271.78603211 194.89002747 271.78603211 194.89002747 271.78590699 193.6448587 C271.78509417 180.45955716 271.80423167 167.27436989 271.83243148 154.0891014 C271.86117306 140.5434012 271.87497108 126.9977567 271.87324393 113.45202523 C271.87258047 105.84999535 271.87805338 98.24808526 271.89960003 90.64608288 C271.91782861 84.17337925 271.92214548 77.70084971 271.90858118 71.2281315 C271.90205986 67.92767518 271.90408576 64.62762132 271.91928768 61.32718372 C271.93472243 57.74390361 271.92544233 54.16149785 271.9100256 50.57823658 C271.92031272 49.54242504 271.93059985 48.5066135 271.94119871 47.43941373 C271.87267193 40.22232784 270.73115085 33.70182347 265.6655277 28.25118989 C259.91025782 22.94955912 254.69956948 21.83665631 246.95575619 21.89371204 C245.68447117 21.89114399 245.68447117 21.89114399 244.38750362 21.88852406 C241.54023979 21.88521514 238.69321151 21.89625833 235.8459692 21.9071703 C233.7728126 21.90778297 231.69965559 21.90751597 229.62649918 21.90643978 C224.07207979 21.90598805 218.5177465 21.91758417 212.96334743 21.93166065 C207.75230289 21.94304609 202.54127934 21.94358665 197.33022213 21.94501209 C182.08781977 21.95550893 166.84543344 21.98343121 151.60304928 22.00922108 C117.55117428 22.05047108 83.49929928 22.09172108 48.41554928 22.13422108 Z M31.16554928 360.63422108 C26.91044959 366.71293491 26.67969613 371.79455765 27.41554928 379.13422108 C29.17654611 385.84384194 33.5852255 389.67433695 39.41554928 393.13422108 C42.56889754 394.18533716 44.77067211 394.2549258 48.0803442 394.24774647 C49.82180973 394.24763317 49.82180973 394.24763317 51.59845638 394.24751759 C53.4782494 394.23977566 53.4782494 394.23977566 55.39601803 394.23187733 C56.67914379 394.23046238 57.96226955 394.22904743 59.28427792 394.22758961 C62.69225169 394.22377513 66.10018271 394.21395398 69.50813961 394.20288563 C72.9870358 394.19264851 76.46593912 394.18803225 79.94484615 394.1830492 C86.76845159 394.17286168 93.5919397 394.15328736 100.41554928 394.13422108 C100.41554928 380.27422108 100.41554928 366.41422108 100.41554928 352.13422108 C93.01386252 352.08821612 85.61267544 352.04841746 78.21095943 352.0243578 C75.69499178 352.0143237 73.17903571 352.0006934 70.66310787 351.98334217 C67.0388925 351.95898011 63.41483184 351.94771177 59.79054928 351.93890858 C58.67252926 351.92858601 57.55450924 351.91826344 56.40260983 351.90762806 C46.44471961 351.90620961 38.20679932 352.81060992 31.16554928 360.63422108 Z M122.41554928 352.13422108 C122.41554928 372.92422108 122.41554928 393.71422108 122.41554928 415.13422108 C126.05978629 413.67652627 128.15881759 412.79417028 131.11476803 410.56781483 C131.76638912 410.0824828 132.41801022 409.59715076 133.0893774 409.0971117 C134.08614498 408.34204334 134.08614498 408.34204334 135.10304928 407.57172108 C136.43935514 406.56917321 137.77655369 405.5678138 139.11476803 404.56781483 C139.70088863 404.12494129 140.28700924 403.68206776 140.89089108 403.22577381 C145.05509848 400.24448137 149.47845439 400.34951145 154.41554928 401.13422108 C157.91750322 402.8542227 160.82741661 405.12508331 163.85304928 407.57172108 C165.41211996 408.78149874 166.97322997 409.98865413 168.53664303 411.19281483 C169.54875851 412.00190296 169.54875851 412.00190296 170.58132076 412.82733631 C172.48868516 414.32135164 172.48868516 414.32135164 175.41554928 415.13422108 C175.41554928 394.34422108 175.41554928 373.55422108 175.41554928 352.13422108 C157.92554928 352.13422108 140.43554928 352.13422108 122.41554928 352.13422108 Z M268.42621517 347.98779774 C260.46703077 351.30616897 253.33278861 351.73550795 244.77883053 351.74359608 C243.40447738 351.7586141 242.03014203 351.7753487 240.65582943 351.79370594 C237.07700833 351.83698677 233.49843042 351.85728992 229.91939449 351.87244129 C226.25195467 351.89215596 222.58476584 351.93389759 218.9175024 351.97406483 C211.75002607 352.05098211 204.58364116 352.09171831 197.41554928 352.13422108 C197.41554928 365.99422108 197.41554928 379.85422108 197.41554928 394.13422108 C204.83343752 394.21830293 212.24958165 394.29841454 219.66753292 394.34122181 C223.12248457 394.36227043 226.57703824 394.39035708 230.03176022 394.43597889 C234.00338963 394.48809352 237.97486135 394.50722896 241.94679928 394.52484608 C243.17418819 394.54549122 244.40157711 394.56613636 245.66615963 394.58740711 C253.67745842 394.58949259 259.15652643 393.73547978 265.43898678 388.42328358 C266.10801022 387.59957264 266.10801022 387.59957264 266.79054928 386.75922108 C267.25203365 386.2152367 267.71351803 385.67125233 268.18898678 385.11078358 C271.19453471 380.26744837 271.65875031 375.5887413 271.61086178 369.98578358 C271.60661694 368.99969608 271.60661694 368.99969608 271.60228634 367.99368763 C271.59118375 365.91533875 271.56609914 363.83743741 271.54054928 361.75922108 C271.53050659 360.3412586 271.521383 358.92328929 271.51320553 357.50531483 C271.49127733 354.04814071 271.45681746 350.59122465 271.41554928 347.13422108 C270.20792424 347.0685025 270.20792424 347.0685025 268.42621517 347.98779774 Z " fill="#FFFFFF" transform="translate(133.58445072174072,31.865778923034668)"/>
<path d="M0 0 C1.31510056 -0.00860046 2.63020111 -0.01720093 3.9851532 -0.02606201 C5.45126303 -0.03049741 6.91737329 -0.03479576 8.38348389 -0.03897095 C9.92082404 -0.04687082 11.45816233 -0.0551397 12.99549866 -0.06375122 C18.05286891 -0.089986 23.1102475 -0.10528091 28.16766357 -0.11953735 C29.90785477 -0.12489655 31.64804591 -0.13027406 33.388237 -0.13566971 C40.62671821 -0.15730112 47.86519718 -0.17603797 55.10370255 -0.1872921 C65.48102375 -0.20353173 75.85797053 -0.23670666 86.23515058 -0.29369295 C93.5294919 -0.33238527 100.82373305 -0.35192398 108.11817431 -0.35721266 C112.47579591 -0.3608673 116.83301829 -0.37289991 121.19052887 -0.4053154 C125.29135488 -0.4353836 129.3915399 -0.44171263 133.49245262 -0.42993164 C134.9960869 -0.42971079 136.4997508 -0.4380253 138.00328255 -0.45558548 C150.78169968 -0.59668218 150.78169968 -0.59668218 154.71838379 2.56536865 C158.2925022 6.92701077 157.9993696 10.37570521 158.01654053 15.82284546 C158.02311172 16.72058182 158.02968292 17.61831818 158.03645325 18.54325867 C158.05621056 21.52284829 158.06785475 24.50238744 158.07781982 27.48202515 C158.08189535 28.49873039 158.08597088 29.51543564 158.09016991 30.56295013 C158.11104182 35.94499001 158.12533823 41.32700431 158.13470459 46.70907593 C158.14576656 52.26878242 158.18016099 57.82808841 158.21987629 63.38765335 C158.24602234 67.66163884 158.25439469 71.93552867 158.25798607 76.2095871 C158.26285784 78.25889539 158.2744886 80.30819925 158.29302406 82.3574295 C158.31737063 85.2277344 158.31645849 88.09700017 158.30950928 90.96737671 C158.32872437 92.23473412 158.32872437 92.23473412 158.34832764 93.5276947 C158.30129739 98.86393951 157.40024223 101.92592915 153.83953857 106.15390015 C151.04026479 107.55353704 148.72924823 107.28957119 145.59642029 107.30107117 C144.94895444 107.30474786 144.3014886 107.30842454 143.63440257 107.31221265 C141.45497058 107.32326574 139.27558623 107.32709605 137.09613037 107.3309021 C135.53746386 107.3371655 133.97879886 107.34381219 132.4201355 107.35081482 C128.17832316 107.36823539 123.9365221 107.37877935 119.69468284 107.38702035 C117.04563243 107.39216804 114.39658554 107.39824386 111.74753761 107.40453148 C103.46245253 107.42358611 95.17737639 107.43781693 86.8922736 107.44614345 C77.32254357 107.45591931 67.75304463 107.48224673 58.18339604 107.52264434 C50.79055542 107.55278381 43.39778113 107.56761024 36.00488025 107.57092446 C31.58755265 107.57327734 27.17047186 107.58226853 22.75321007 107.60738564 C18.59745937 107.63063373 14.44211855 107.63491291 10.28631973 107.62462425 C8.76131262 107.62412799 7.23628556 107.63047513 5.71133995 107.6441803 C3.62827003 107.66185351 1.54667838 107.65481779 -0.53639221 107.64164734 C-1.70170629 107.64403569 -2.86702036 107.64642405 -4.06764698 107.64888477 C-7.81545578 107.0490726 -9.4694198 105.77733071 -12.16046143 103.15390015 C-13.84210724 99.79060851 -13.33528126 95.98593606 -13.35333252 92.28549194 C-13.36151001 91.36664215 -13.3696875 90.44779236 -13.37811279 89.50109863 C-13.4029829 86.45177874 -13.4194864 83.40250542 -13.43389893 80.3531189 C-13.4392226 79.31310038 -13.44454628 78.27308186 -13.45003128 77.20154762 C-13.4767691 71.69747275 -13.49614253 66.19342062 -13.51055908 60.68930054 C-13.52721411 54.99937408 -13.57199756 49.31002602 -13.62293053 43.62031841 C-13.65655758 39.24943869 -13.66813152 34.87869706 -13.67378616 30.50769997 C-13.68051052 28.41009917 -13.69576317 26.31250783 -13.71967697 24.21503258 C-13.75123538 21.27970365 -13.75137925 18.34594542 -13.74395752 15.41049194 C-13.76036285 14.54329025 -13.77676819 13.67608856 -13.79367065 12.78260803 C-13.74806713 8.37861087 -13.59260503 6.69438454 -10.74899292 3.13786316 C-6.84763254 0.14769104 -4.88689925 0.02371782 0 0 Z M8.83953857 22.15390015 C8.83953857 42.94390015 8.83953857 63.73390015 8.83953857 85.15390015 C50.74953857 85.15390015 92.65953857 85.15390015 135.83953857 85.15390015 C135.83953857 64.36390015 135.83953857 43.57390015 135.83953857 22.15390015 C93.92953857 22.15390015 52.01953857 22.15390015 8.83953857 22.15390015 Z " fill="#FFFFFF" transform="translate(221.16046142578125,84.84609985351563)"/>
<path d="M0 0 C1.13977798 -0.00852997 2.27955597 -0.01705994 3.45387268 -0.02584839 C5.33110519 -0.02448883 5.33110519 -0.02448883 7.2462616 -0.02310181 C8.56354752 -0.02981903 9.88083344 -0.03653625 11.23803711 -0.04345703 C14.85386802 -0.06113911 18.46960429 -0.0658134 22.08547425 -0.0670886 C25.10474323 -0.06898756 28.12399015 -0.07634525 31.14325064 -0.08343279 C38.2684193 -0.09972355 45.3935374 -0.10460121 52.51872253 -0.10317993 C59.86521407 -0.10197902 67.21141158 -0.12306903 74.55782872 -0.15466726 C80.86707433 -0.180836 87.17622396 -0.19154695 93.4855234 -0.19026911 C97.25285242 -0.18975955 101.0199203 -0.19543888 104.78719521 -0.21662521 C108.33234837 -0.23601738 111.87699166 -0.23612594 115.42216301 -0.22159195 C117.33899789 -0.21851014 119.25583285 -0.2351745 121.17259216 -0.25247192 C127.52476501 -0.2060632 131.76331877 -0.17210872 136.51652527 4.26742554 C138.37379143 7.98195785 138.10153616 12.22321979 137.51652527 16.26742554 C135.32629609 19.09166842 133.6863532 20.68251157 130.51652527 22.26742554 C128.72876861 22.36926989 126.93721462 22.40690254 125.14657593 22.41459656 C123.43680321 22.42532951 123.43680321 22.42532951 121.69248962 22.4362793 C120.43583496 22.4389682 119.1791803 22.4416571 117.88444519 22.44442749 C115.90632591 22.45428429 115.90632591 22.45428429 113.88824463 22.46434021 C110.26418207 22.4817553 106.6401327 22.49230333 103.01603866 22.50054574 C100.75226026 22.50569481 98.48848597 22.51177058 96.22471046 22.51805687 C89.14311757 22.53711036 82.06153512 22.55134117 74.97992152 22.55966884 C66.8030662 22.56944298 58.62648147 22.5957662 50.44972152 22.63616973 C44.13118165 22.6663208 37.81271939 22.68113674 31.49410897 22.68444985 C27.71951412 22.6868015 23.94520828 22.69577635 20.17069054 22.72091103 C16.6190104 22.7441795 13.06780981 22.74843031 9.51607323 22.73814964 C7.59305597 22.73741766 5.67006313 22.75651763 3.74714661 22.7762146 C2.02468468 22.76579887 2.02468468 22.76579887 0.26742554 22.75517273 C-0.72827863 22.75756108 -1.72398279 22.75994944 -2.74985981 22.76241016 C-6.86321457 22.01759152 -9.4269897 19.77668986 -11.79597473 16.39242554 C-12.74732745 13.45188076 -12.85330616 11.34935415 -12.48347473 8.26742554 C-9.21513115 2.40694739 -6.74323743 0.02277541 0 0 Z " fill="#FFFFFF" transform="translate(230.4834747314453,228.73257446289063)"/>
<path d="M0 0 C1.1257695 -0.00708481 2.251539 -0.01416962 3.41142273 -0.02146912 C5.25756668 -0.01775299 5.25756668 -0.01775299 7.14100647 -0.01396179 C8.44053757 -0.01907272 9.74006866 -0.02418365 11.07897949 -0.02944946 C14.64097684 -0.04283644 18.20286806 -0.04341849 21.76488566 -0.04088616 C24.73956168 -0.03981625 27.71421624 -0.04470032 30.68888766 -0.04949158 C37.70712328 -0.06058571 44.72530538 -0.06102471 51.74354553 -0.05497742 C58.98153575 -0.04893664 66.21933162 -0.06125139 73.45728868 -0.08254749 C79.67396913 -0.10016551 85.89058774 -0.10616454 92.10729223 -0.10290974 C95.81919073 -0.10109707 99.53095059 -0.1037314 103.24282646 -0.11762428 C107.38219184 -0.13253757 111.5211618 -0.12323079 115.66053772 -0.11161804 C116.88927612 -0.11926178 118.11801453 -0.12690552 119.38398743 -0.13478088 C120.51257675 -0.12776657 121.64116608 -0.12075226 122.80395508 -0.11352539 C123.78231292 -0.11369313 124.76067076 -0.11386087 125.7686758 -0.1140337 C129.65380934 0.42582094 132.20226634 2.28219779 135.25062561 4.64350891 C137.37938504 7.47729156 136.92352623 10.39456706 136.82875061 13.81147766 C136.3238995 17.21515125 134.97865428 18.9692631 132.46546936 21.26069641 C129.85862325 22.56411947 127.94006633 22.3984731 125.01959229 22.41459656 C123.8629155 22.42319702 122.70623871 22.43179749 121.51451111 22.44065857 C120.23915497 22.44491852 118.96379883 22.44917847 117.64979553 22.4535675 C116.29802235 22.46146797 114.94625127 22.46973688 113.59448242 22.47834778 C109.14915483 22.50457367 104.70381778 22.51987562 100.25843811 22.53413391 C98.72872219 22.53949329 97.19900634 22.5448708 95.66929054 22.55026627 C89.30665879 22.57189552 82.94402958 22.59063269 76.58137035 22.60188866 C67.4597128 22.61813108 58.33848101 22.65131493 49.21698397 22.7082895 C42.80502888 22.74697578 36.39318773 22.76651974 29.98111898 22.77180922 C26.15056139 22.77546445 22.32045783 22.78750298 18.49002647 22.81991196 C14.88574749 22.84997027 11.28219776 22.8563131 7.67782021 22.8445282 C5.72614853 22.844202 3.77452201 22.86868263 1.82301331 22.89390564 C-7.71767683 22.82578996 -7.71767683 22.82578996 -10.80679321 19.86460876 C-13.37124681 15.99966244 -13.9554128 12.85802463 -13.53453064 8.26069641 C-10.35326868 1.78034797 -7.01468031 0.01472445 0 0 Z " fill="#FFFFFF" transform="translate(231.53453063964844,265.7393035888672)"/>
<path d="M0 0 C0.71446289 -0.0071553 1.42892578 -0.01431061 2.16503906 -0.02168274 C4.51693483 -0.03853429 6.86691465 -0.01919084 9.21875 0.00219727 C10.85872556 0.00136823 12.49870103 -0.00109248 14.13867188 -0.00511169 C17.57186972 -0.00796724 21.00441429 0.00670688 24.4375 0.03417969 C28.83268672 0.06826273 33.22670561 0.06224233 37.62194824 0.04351711 C41.00726003 0.03293578 44.39230125 0.0418951 47.77758789 0.05690193 C49.39785966 0.06207593 51.01815978 0.06161143 52.63842773 0.05535698 C54.90540063 0.04989075 57.17071613 0.07032154 59.4375 0.09765625 C60.72591797 0.10385483 62.01433594 0.11005341 63.34179688 0.11643982 C67.27362643 0.71566932 68.92411625 1.85737205 71.71875 4.63110352 C73.57730282 8.34820915 73.29783439 12.58387633 72.71875 16.63110352 C70.19198961 19.97735376 68.67941458 21.31088199 64.71875 22.63110352 C62.49696494 22.74090802 60.27203164 22.79013862 58.04760742 22.80810547 C57.03728203 22.81796227 57.03728203 22.81796227 56.00654602 22.82801819 C53.77910241 22.84771691 51.55172611 22.85940601 49.32421875 22.86938477 C48.56217951 22.87346029 47.80014027 22.87753582 47.01500893 22.88173485 C42.98160703 22.90258091 38.94823901 22.91688897 34.91479492 22.92626953 C30.75518905 22.9373315 26.5961185 22.97173257 22.43670177 23.01144123 C19.23243739 23.03762195 16.0283003 23.04596262 12.82393837 23.04955101 C11.29097185 23.05441318 9.75801088 23.06601674 8.22514915 23.084589 C6.07569656 23.10901337 3.92762588 23.10801046 1.77807617 23.10107422 C-0.05367912 23.10987358 -0.05367912 23.10987358 -1.92243958 23.11885071 C-5.95154447 22.5337672 -8.11358652 21.1388135 -11.28125 18.63110352 C-13.28667966 15.76214607 -13.54765265 13.64409133 -13.21875 10.19360352 C-13.16589844 9.45239258 -13.11304688 8.71118164 -13.05859375 7.94750977 C-10.86618707 1.41435821 -6.37879495 0.00476156 0 0 Z " fill="#FFFFFF" transform="translate(263.28125,303.368896484375)"/>
</svg>
