<?xml version="1.0" encoding="UTF-8"?>
<svg version="1.1" xmlns="http://www.w3.org/2000/svg" width="512" height="512">
<path d="M0 0 C8.99838326 4.49919163 8.99838326 4.49919163 12.15722656 6.65600586 C12.87726868 7.1438707 13.59731079 7.63173553 14.33917236 8.13438416 C15.47839142 8.91671165 15.47839142 8.91671165 16.640625 9.71484375 C17.46342957 10.27357681 18.28623413 10.83230988 19.13397217 11.40797424 C20.91112977 12.61506482 22.68690446 13.82419346 24.46142578 15.03515625 C29.28423765 18.32524118 34.11854271 21.59833878 38.953125 24.87109375 C39.95218872 25.54768036 40.95125244 26.22426697 41.98059082 26.9213562 C52.26060253 33.87216583 62.62481917 40.69243541 73 47.5 C88.47101947 57.65682625 103.85195887 67.93725539 119.17724609 78.3125 C132.71891755 87.47689097 146.33209604 96.5250735 160 105.5 C175.4609459 115.65231403 190.83452413 125.92410896 206.15005493 136.29437256 C222.0583524 147.06233799 238.07026129 157.66688708 254.13671875 168.19726562 C264.5147834 175.00488247 274.80773204 181.91694988 285 189 C283.87649315 192.37052055 283.38326247 192.69333942 280.52978516 194.54248047 C279.41411667 195.27439102 279.41411667 195.27439102 278.27590942 196.02108765 C277.45524994 196.5478006 276.63459045 197.07451355 275.7890625 197.6171875 C274.93142303 198.17733551 274.07378357 198.73748352 273.19015503 199.31460571 C271.32311362 200.53310006 269.45371153 201.74798297 267.58227539 202.9597168 C262.52549226 206.23474889 257.48638574 209.53679646 252.4453125 212.8359375 C250.88535553 213.85545502 250.88535553 213.85545502 249.29388428 214.89556885 C238.95843035 221.65970798 228.72389226 228.56889683 218.5 235.5 C203.15738384 245.89082412 187.72892865 256.14164458 172.23974609 266.3125 C158.59247662 275.27704863 145.02102213 284.34624583 131.5 293.5 C116.1636076 303.88276283 100.74567219 314.13177871 85.26391602 324.29638672 C69.35791531 334.74300998 53.55598536 345.3373646 37.80859375 356.02148438 C29.22685749 361.83925121 20.61534974 367.60757312 11.9375 373.28125 C10.65999878 374.12073181 10.65999878 374.12073181 9.35668945 374.97717285 C8.56738037 375.49066284 7.77807129 376.00415283 6.96484375 376.53320312 C6.2699585 376.98667114 5.57507324 377.44013916 4.85913086 377.90734863 C3 379 3 379 0 380 C0 254.6 0 129.2 0 0 Z " fill="#E3E3E3" transform="translate(66,66)"/>
<path d="M0 0 C19.14 0 38.28 0 58 0 C58 125.4 58 250.8 58 380 C38.86 380 19.72 380 0 380 C0 254.6 0 129.2 0 0 Z " fill="#E2E2E2" transform="translate(388,66)"/>
</svg>
