<?xml version="1.0" encoding="UTF-8"?>
<svg version="1.1" xmlns="http://www.w3.org/2000/svg" width="512" height="512">
<path d="M0 0 C1.01790619 0.00215515 2.03581238 0.0043103 3.08456421 0.00653076 C17.69363523 0.05620146 32.02575853 0.30709809 46.375 3.3125 C47.34985352 3.51117676 48.32470703 3.70985352 49.32910156 3.91455078 C97.7109774 14.03517194 141.69928269 35.9516877 177.375 70.3125 C178.3640332 71.26068604 178.3640332 71.26068604 179.37304688 72.22802734 C188.86130305 81.37247479 197.6012044 90.66984009 205.375 101.3125 C206.23306152 102.46355017 207.09113451 103.61459177 207.94921875 104.765625 C213.98677396 112.95525981 219.36957302 121.45788276 224.375 130.3125 C224.7771875 131.01971191 225.179375 131.72692383 225.59375 132.45556641 C238.6191741 155.59095836 247.36801461 180.76212409 252.6875 206.75 C252.83485596 207.46889404 252.98221191 208.18778809 253.1340332 208.9284668 C256.10789088 224.57475609 256.74800362 240.04818046 256.6875 255.9375 C256.68534485 256.95540619 256.6831897 257.97331238 256.68096924 259.02206421 C256.63129854 273.63113523 256.38040191 287.96325853 253.375 302.3125 C253.07698486 303.77478027 253.07698486 303.77478027 252.77294922 305.26660156 C240.31286762 364.83232498 208.4226363 421.18616419 159.375 458.3125 C158.83617187 458.72773926 158.29734375 459.14297852 157.7421875 459.57080078 C123.10984413 486.19538539 82.61292732 503.76641435 39.375 510.3125 C38.25689941 510.48982666 37.13879883 510.66715332 35.98681641 510.84985352 C25.22545702 512.39416151 14.5855899 512.65229671 3.72314453 512.62817383 C0.77468385 512.62502635 -2.17275697 512.64852578 -5.12109375 512.67382812 C-18.51105903 512.71844438 -31.42266733 511.51675057 -44.625 509.3125 C-45.76195312 509.12437744 -46.89890625 508.93625488 -48.0703125 508.74243164 C-109.3334805 497.73890506 -167.76225972 461.60462894 -204.625 411.3125 C-205.26211914 410.45857666 -205.26211914 410.45857666 -205.91210938 409.58740234 C-212.42768015 400.84658179 -218.26088547 391.80163672 -223.625 382.3125 C-224.0271875 381.60528809 -224.429375 380.89807617 -224.84375 380.16943359 C-237.8691741 357.03404164 -246.61801461 331.86287591 -251.9375 305.875 C-252.08485596 305.15610596 -252.23221191 304.43721191 -252.3840332 303.6965332 C-255.35789088 288.05024391 -255.99800362 272.57681954 -255.9375 256.6875 C-255.93534485 255.66959381 -255.9331897 254.65168762 -255.93096924 253.60293579 C-255.88129854 238.99386477 -255.63040191 224.66174147 -252.625 210.3125 C-252.42632324 209.33764648 -252.22764648 208.36279297 -252.02294922 207.35839844 C-241.90232806 158.9765226 -219.9858123 114.98821731 -185.625 79.3125 C-184.99287598 78.65314453 -184.36075195 77.99378906 -183.70947266 77.31445312 C-174.56502521 67.82619695 -165.26765991 59.0862956 -154.625 51.3125 C-153.47394983 50.45443848 -152.32290823 49.59636549 -151.171875 48.73828125 C-142.98224019 42.70072604 -134.47961724 37.31792698 -125.625 32.3125 C-124.91778809 31.9103125 -124.21057617 31.508125 -123.48193359 31.09375 C-100.34654164 18.0683259 -75.17537591 9.31948539 -49.1875 4 C-48.46860596 3.85264404 -47.74971191 3.70528809 -47.0090332 3.5534668 C-31.36274391 0.57960912 -15.88931954 -0.06050362 0 0 Z " fill="#E3E3E3" transform="translate(255.625,-0.3125)"/>
<path d="M0 0 C4.17162451 1.74328234 7.89203265 4.0954072 11.68603516 6.52734375 C14.35849605 8.22815448 17.05785902 9.88081367 19.76171875 11.53125 C24.20421621 14.24561663 28.63936711 16.97144549 33.06640625 19.7109375 C39.76811125 23.85762188 46.47613566 27.99396236 53.1875 32.125 C54.26314209 32.78733643 55.33878418 33.44967285 56.44702148 34.13208008 C64.50432887 39.08962734 72.58309612 44.01114784 80.66870117 48.92236328 C87.8325495 53.27811208 94.9641904 57.68400572 102.0871582 62.10620117 C108.53696673 66.10591813 115.01308295 70.06079667 121.5 74 C129.64005864 78.94404966 137.75696194 83.92306196 145.84643555 88.94946289 C150.82287964 92.039988 155.81126935 95.10991823 160.8125 98.16015625 C162.57081057 99.23465146 164.32893381 100.30945256 166.08700562 101.38433838 C167.76306773 102.40732884 169.44167774 103.42614118 171.12036133 104.44482422 C188.94451637 115.34742002 188.94451637 115.34742002 191 121 C191.7019824 126.96685043 191.52873436 131.94214742 188 137 C182.4437858 142.21128144 175.88569286 145.86029105 169.375 149.75 C168.1296417 150.49922008 166.88461186 151.24898635 165.63989258 151.99926758 C163.05334976 153.55778177 160.46541359 155.11394302 157.87646484 156.66845703 C152.38673369 159.96716771 146.91427993 163.29427038 141.44165039 166.62124634 C139.09794424 168.04585923 136.75354474 169.46932902 134.40914917 170.89280701 C132.69667101 171.93262818 130.98432104 172.97266045 129.27197266 174.01269531 C127.16757582 175.2908471 125.06309085 176.56885381 122.95849609 177.84667969 C112.05529778 184.46784818 101.17141911 191.11893585 90.3125 197.8125 C78.35303484 205.18328281 66.35222285 212.48403778 54.33750916 219.76422119 C50.12660737 222.31601889 45.91817397 224.87185178 41.7109375 227.4296875 C30.94501721 233.97425756 20.17575981 240.5130066 9.375 247 C8.54548828 247.49862549 7.71597656 247.99725098 6.86132812 248.51098633 C6.11044922 248.96111084 5.35957031 249.41123535 4.5859375 249.875 C3.9367334 250.26429688 3.2875293 250.65359375 2.61865234 251.0546875 C-1.55023188 253.48936619 -5.23423018 253.58667993 -10 253 C-13.3125 251.25 -13.3125 251.25 -16 249 C-17.11375 248.071875 -17.11375 248.071875 -18.25 247.125 C-22.49032309 241.97603625 -22.29020702 236.04081617 -22.26742554 229.70777893 C-22.27195665 228.78062496 -22.27648776 227.85347098 -22.28115618 226.89822143 C-22.29380145 223.79611042 -22.29217973 220.69417493 -22.29052734 217.59204102 C-22.29651242 215.36608657 -22.30331792 213.14013421 -22.31088257 210.91418457 C-22.32854972 204.87086306 -22.3332382 198.82759819 -22.33451414 192.78425336 C-22.33641361 187.73938967 -22.34377152 182.69453917 -22.35085833 177.64968055 C-22.36621197 166.42840036 -22.372196 155.20714691 -22.37084763 143.9858594 C-22.37076772 143.31304289 -22.3706878 142.64022638 -22.37060547 141.94702148 C-22.37052371 141.27338111 -22.37044195 140.59974074 -22.37035771 139.90568703 C-22.36954459 128.98554174 -22.38869079 118.06553431 -22.4168822 107.1454289 C-22.44561905 95.92530509 -22.45905593 84.70524646 -22.45769465 73.48507828 C-22.45718451 67.18872049 -22.46289705 60.89251882 -22.48405075 54.59619331 C-22.50339897 48.67573763 -22.50358079 42.75558755 -22.48901749 36.83512115 C-22.48692421 34.66271201 -22.49166104 32.49028391 -22.5037384 30.31790733 C-22.51916276 27.35131297 -22.50990095 24.38577612 -22.49447632 21.41920471 C-22.50476344 20.56044206 -22.51505057 19.7016794 -22.52564943 18.81689364 C-22.45959884 13.0649092 -21.30293302 9.73762766 -18 5 C-12.23032254 -0.22018437 -7.683463 -1.20726763 0 0 Z " fill="#000000" transform="translate(199,130)"/>
</svg>
