<?xml version="1.0" encoding="UTF-8"?>
<svg version="1.1" xmlns="http://www.w3.org/2000/svg" width="512" height="512">
<path d="M0 0 C1.01790619 0.00215515 2.03581238 0.0043103 3.08456421 0.00653076 C17.69363523 0.05620146 32.02575853 0.30709809 46.375 3.3125 C47.34985352 3.51117676 48.32470703 3.70985352 49.32910156 3.91455078 C97.7109774 14.03517194 141.69928269 35.9516877 177.375 70.3125 C178.3640332 71.26068604 178.3640332 71.26068604 179.37304688 72.22802734 C188.86130305 81.37247479 197.6012044 90.66984009 205.375 101.3125 C206.23306152 102.46355017 207.09113451 103.61459177 207.94921875 104.765625 C213.98736829 112.95680614 219.34595521 121.47054105 224.375 130.3125 C224.73948242 130.94430176 225.10396484 131.57610352 225.47949219 132.22705078 C247.08534998 169.97532572 256.85198095 212.74189997 256.6875 255.9375 C256.68534485 256.95540619 256.6831897 257.97331238 256.68096924 259.02206421 C256.63129854 273.63113523 256.38040191 287.96325853 253.375 302.3125 C253.07698486 303.77478027 253.07698486 303.77478027 252.77294922 305.26660156 C242.65232806 353.6484774 220.7358123 397.63678269 186.375 433.3125 C185.74287598 433.97185547 185.11075195 434.63121094 184.45947266 435.31054688 C175.31502521 444.79880305 166.01765991 453.5387044 155.375 461.3125 C154.22394983 462.17056152 153.07290823 463.02863451 151.921875 463.88671875 C143.73224019 469.92427396 135.22961724 475.30707302 126.375 480.3125 C125.66778809 480.7146875 124.96057617 481.116875 124.23193359 481.53125 C101.09654164 494.5566741 75.92537591 503.30551461 49.9375 508.625 C49.21860596 508.77235596 48.49971191 508.91971191 47.7590332 509.0715332 C33.08339502 511.86090125 18.55831162 512.66142619 3.64770508 512.62817383 C0.70811513 512.6250221 -2.2304558 512.64854926 -5.16992188 512.67382812 C-18.54306192 512.71848737 -31.43916711 511.51301542 -44.625 509.3125 C-46.33055054 509.03031616 -46.33055054 509.03031616 -48.07055664 508.74243164 C-91.33802759 500.97044532 -132.38793216 480.98345309 -165.625 452.3125 C-166.37007813 451.67828125 -167.11515625 451.0440625 -167.8828125 450.390625 C-181.38779833 438.57948485 -194.05918743 425.82889772 -204.625 411.3125 C-205.48149066 410.16255169 -206.33826433 409.01281411 -207.1953125 407.86328125 C-213.23534209 399.67315742 -218.61867614 391.16870382 -223.625 382.3125 C-224.0271875 381.60528809 -224.429375 380.89807617 -224.84375 380.16943359 C-237.8691741 357.03404164 -246.61801461 331.86287591 -251.9375 305.875 C-252.08485596 305.15610596 -252.23221191 304.43721191 -252.3840332 303.6965332 C-255.35789088 288.05024391 -255.99800362 272.57681954 -255.9375 256.6875 C-255.93534485 255.66959381 -255.9331897 254.65168762 -255.93096924 253.60293579 C-255.88129854 238.99386477 -255.63040191 224.66174147 -252.625 210.3125 C-252.42632324 209.33764648 -252.22764648 208.36279297 -252.02294922 207.35839844 C-241.90232806 158.9765226 -219.9858123 114.98821731 -185.625 79.3125 C-184.99287598 78.65314453 -184.36075195 77.99378906 -183.70947266 77.31445312 C-174.56502521 67.82619695 -165.26765991 59.0862956 -154.625 51.3125 C-153.47394983 50.45443848 -152.32290823 49.59636549 -151.171875 48.73828125 C-142.98224019 42.70072604 -134.47961724 37.31792698 -125.625 32.3125 C-124.91778809 31.9103125 -124.21057617 31.508125 -123.48193359 31.09375 C-100.34654164 18.0683259 -75.17537591 9.31948539 -49.1875 4 C-48.46860596 3.85264404 -47.74971191 3.70528809 -47.0090332 3.5534668 C-31.36274391 0.57960912 -15.88931954 -0.06050362 0 0 Z " fill="#E2E2E2" transform="translate(255.625,-0.3125)"/>
<path d="M0 0 C2.4297262 0.02144163 4.85649665 0.00013283 7.28613281 -0.02539062 C18.98441246 -0.04745393 27.00976134 1.58779148 35.71191406 9.73632812 C42.75943666 17.03954315 43.73951921 25.09665391 43.69526672 34.77500916 C43.70100504 36.12330939 43.70100504 36.12330939 43.70685929 37.49884802 C43.71713027 40.49335175 43.7132084 43.48766162 43.70922852 46.48217773 C43.71357823 48.636217 43.71876224 50.79025473 43.72471619 52.94429016 C43.73808877 58.78309497 43.73868684 64.62183498 43.73615289 70.46065211 C43.73508211 75.33890984 43.73996923 80.21715452 43.74475831 85.09540945 C43.75584724 96.60520155 43.75629419 108.11496101 43.75024414 119.62475586 C43.74420254 131.49108773 43.75652157 143.35730108 43.77781421 155.22361273 C43.79543636 165.42001632 43.80143063 175.61638221 43.79817647 185.81280047 C43.79636463 191.89901075 43.79899008 197.98513646 43.81289101 204.07133293 C43.82547482 209.79479936 43.82351985 215.5180811 43.81048012 221.24154472 C43.8081161 223.33893395 43.81084272 225.43633619 43.81910324 227.53371048 C43.82958697 230.4030122 43.82145687 233.27169606 43.80879211 236.14097595 C43.8161664 236.96531205 43.82354068 237.78964814 43.83113843 238.63896412 C43.74720365 247.71587309 41.07246231 255.71832228 34.68066406 262.33789062 C27.98043587 268.61853505 21.25263752 270.98273655 12.20019531 271.02539062 C11.44091736 271.03537582 10.6816394 271.04536102 9.89935303 271.0556488 C8.3027485 271.07073411 6.70605072 271.0778776 5.109375 271.07739258 C2.70311513 271.08393396 0.30103624 271.13844829 -2.10449219 271.1953125 C-12.64097176 271.310295 -21.05927202 269.92970716 -29.4765625 262.93286133 C-36.05978073 256.04921043 -38.17021368 247.10474618 -38.08682251 237.8578186 C-38.0944736 236.93894186 -38.1021247 236.02006512 -38.11000764 235.07334363 C-38.13049278 232.02277778 -38.12271762 228.97297718 -38.11474609 225.92236328 C-38.1234488 223.72363088 -38.13381792 221.52490454 -38.14572144 219.32618713 C-38.17243283 213.37361533 -38.17366653 207.42129803 -38.16859484 201.468678 C-38.16645079 196.49117419 -38.17623392 191.51372139 -38.18580568 186.53622854 C-38.20923799 174.118622 -38.20755953 161.70112846 -38.19469206 149.28351788 C-38.18435665 138.52211598 -38.20686319 127.76107631 -38.2448885 116.99974604 C-38.28371773 105.92521266 -38.29956299 94.85085873 -38.292642 83.77625787 C-38.28902301 77.56860154 -38.29422134 71.36127703 -38.32207108 65.15367508 C-38.34729034 59.31426132 -38.34328159 53.47557066 -38.3172493 47.63616753 C-38.31253219 45.49972091 -38.31793541 43.3632229 -38.33449554 41.22683525 C-38.42374302 28.81301343 -38.48856697 18.36031972 -29.82573891 8.55169106 C-28.17380291 6.94450089 -26.5179504 5.74209782 -24.56542969 4.52148438 C-24.00573486 4.15796875 -23.44604004 3.79445313 -22.86938477 3.41992188 C-15.66012031 -0.44419225 -7.9561042 -0.08357928 0 0 Z " fill="#010101" transform="translate(318.5654296875,120.478515625)"/>
<path d="M0 0 C0.72387405 -0.00807175 1.44774811 -0.01614349 2.19355774 -0.02445984 C3.72235765 -0.03824466 5.25118761 -0.04899168 6.7800293 -0.05688477 C8.32667206 -0.06837494 9.8732761 -0.08877989 11.41967773 -0.1184082 C22.10521863 -0.32273593 31.25938547 0.19193026 40.17578125 6.73828125 C48.4708557 14.97299989 50.065725 23.77544481 50.21064258 34.96879935 C50.21696997 38.0116235 50.19399576 41.05346304 50.17041016 44.09619141 C50.1752726 46.29846381 50.18271765 48.50073178 50.1925354 50.70298767 C50.21126846 56.65547618 50.1925761 62.60730209 50.16587114 68.55973864 C50.14315577 74.80238919 50.15146367 81.04500917 50.15536499 87.28768921 C50.15712796 97.76676723 50.13517225 108.24560216 50.09814453 118.72460938 C50.06012459 129.48738434 50.04597616 140.24985799 50.05712891 151.01269531 C50.07056133 164.01379147 50.06392255 177.01473627 50.03892136 190.01581955 C50.02965176 194.97013191 50.02787192 199.92436253 50.03209305 204.87868118 C50.03586981 210.71474494 50.01956733 216.55042414 49.98797226 222.38640022 C49.97951283 224.5236699 49.97776776 226.6609787 49.98335266 228.79825783 C49.9898365 231.72412747 49.97153557 234.64886244 49.94717407 237.57461548 C49.95851204 238.83183975 49.95851204 238.83183975 49.97007906 240.11446249 C49.83996576 248.99669964 46.80346692 257.00554298 40.42578125 263.23828125 C33.53859162 268.3573311 27.12740659 270.54703574 18.5 270.57421875 C17.75297318 270.58087555 17.00594635 270.58753235 16.23628235 270.59439087 C14.6621851 270.60447143 13.08804551 270.60920932 11.51391602 270.60888672 C9.13028974 270.61325011 6.74853262 270.64958781 4.36523438 270.6875 C-3.59130269 270.7470429 -10.67944336 270.70963034 -17.57421875 266.23828125 C-18.38375 265.72007812 -19.19328125 265.201875 -20.02734375 264.66796875 C-26.08665639 259.42534607 -29.88210302 253.10900272 -31.57421875 245.23828125 C-31.67511142 242.28105095 -31.72203425 239.34720506 -31.72138977 236.3898468 C-31.72506646 235.48623057 -31.72874315 234.58261434 -31.73253125 233.6516158 C-31.74356355 230.61710337 -31.74741117 227.58262519 -31.7512207 224.5480957 C-31.75748568 222.37494294 -31.76413251 220.20179126 -31.77113342 218.02864075 C-31.79217147 210.88628892 -31.80253529 203.74393688 -31.8125 196.6015625 C-31.81654759 194.14264604 -31.82066452 191.68372969 -31.82485008 189.22481346 C-31.84390085 177.67310585 -31.85813237 166.12140463 -31.86646205 154.56968433 C-31.87623571 141.23565454 -31.90255912 127.90184066 -31.94296294 114.56786567 C-31.97312199 104.26114648 -31.98793072 93.95447487 -31.99124306 83.64771241 C-31.9935937 77.49209525 -32.00255631 71.33665541 -32.02770424 65.18108559 C-32.05098617 59.38870303 -32.05521751 53.59661453 -32.04494286 47.80419731 C-32.04444743 45.68100125 -32.0507699 43.55779071 -32.0644989 41.43463898 C-32.08222711 38.52995301 -32.07510681 35.62632129 -32.06196594 32.72163391 C-32.07293519 31.88678744 -32.08390443 31.05194097 -32.09520608 30.19179612 C-31.99887784 21.33718293 -28.47018555 14.44564041 -22.50390625 8.03125 C-15.57449578 1.59278967 -9.31412904 0.10021804 0 0 Z " fill="#000000" transform="translate(181.57421875,120.76171875)"/>
</svg>
