<?xml version="1.0" encoding="UTF-8"?>
<svg version="1.1" xmlns="http://www.w3.org/2000/svg" width="512" height="512">
<path d="M0 0 C0.97055328 0.00215515 1.94110657 0.0043103 2.94107056 0.00653076 C17.26361716 0.05754633 31.30505979 0.38406747 45.375 3.3125 C46.3846582 3.52181152 47.39431641 3.73112305 48.43457031 3.94677734 C113.68966736 17.88772868 170.73958427 55.63911007 207.53515625 111.59765625 C209.53543402 114.80684941 211.46439836 118.0491924 213.375 121.3125 C214.08835732 122.48709114 214.80190487 123.66156677 215.515625 124.8359375 C237.28857561 161.33186945 246.85613716 203.79218755 246.6875 245.9375 C246.68534485 246.90805328 246.6831897 247.87860657 246.68096924 248.87857056 C246.6299334 263.20680898 246.28258438 277.23435782 243.375 291.3125 C243.17632324 292.29557129 242.97764648 293.27864258 242.77294922 294.29150391 C239.56197522 309.73063656 235.01803374 324.59539933 229.375 339.3125 C229.10107422 340.03163574 228.82714844 340.75077148 228.54492188 341.49169922 C205.72245882 400.19233259 156.17639909 446.59888989 99.75048828 472.51806641 C83.50446204 479.64496585 66.38103401 485.084419 49 488.625 C48.27748047 488.77227539 47.55496094 488.91955078 46.81054688 489.07128906 C31.47941368 491.96536239 16.31727809 492.68728976 0.75 492.625 C-0.22055328 492.62284485 -1.19110657 492.6206897 -2.19107056 492.61846924 C-16.51930898 492.5674334 -30.54685782 492.22008438 -44.625 489.3125 C-46.09960693 489.01448486 -46.09960693 489.01448486 -47.60400391 488.71044922 C-63.04313656 485.49947522 -77.90789933 480.95553374 -92.625 475.3125 C-93.34413574 475.03857422 -94.06327148 474.76464844 -94.80419922 474.48242188 C-153.36369713 451.71483146 -200.19173128 402.09108146 -225.84667969 345.62353516 C-228.31322524 339.92843063 -230.53439891 334.15518617 -232.625 328.3125 C-232.90037598 327.54550781 -233.17575195 326.77851563 -233.45947266 325.98828125 C-236.7860053 316.54004627 -239.29124 306.98264764 -241.375 297.1875 C-241.57375732 296.25905273 -241.77251465 295.33060547 -241.97729492 294.37402344 C-245.18740382 278.48446598 -246.00219991 262.85711349 -245.9375 246.6875 C-245.93534485 245.71694672 -245.9331897 244.74639343 -245.93096924 243.74642944 C-245.87995367 229.42388284 -245.55343253 215.38244021 -242.625 201.3125 C-242.41568848 200.3028418 -242.20637695 199.29318359 -241.99072266 198.25292969 C-233.11524425 156.70840446 -215.50524943 118.60840588 -187.625 86.3125 C-186.95597656 85.53261719 -186.28695312 84.75273438 -185.59765625 83.94921875 C-175.54775198 72.51441147 -164.76497902 61.52499089 -152.625 52.3125 C-152.05813477 51.8798584 -151.49126953 51.4472168 -150.90722656 51.00146484 C-142.44750442 44.57234586 -133.80245061 38.68571464 -124.625 33.3125 C-123.45040886 32.59914268 -122.27593323 31.88559513 -121.1015625 31.171875 C-99.42668236 18.24489569 -74.92720371 9.73395827 -50.3125 4.5 C-49.39533203 4.30494873 -48.47816406 4.10989746 -47.53320312 3.90893555 C-31.6959271 0.74622371 -16.11036364 -0.06446283 0 0 Z " fill="#3CC184" transform="translate(255.625,9.6875)"/>
<path d="M0 0 C7.28296579 3.07927615 14.08442786 7.29237103 20.875 11.3125 C29.88059117 16.60625089 38.92234397 21.83125681 48 27 C57.72171854 32.53901815 67.40895986 38.13375586 77.06689453 43.78344727 C87.59084625 49.93766742 98.15380137 56.02369996 108.71777344 62.10888672 C114.14659942 65.23680148 119.57319281 68.36858448 125 71.5 C127.16665583 72.75001879 129.3333225 74.00001878 131.5 75.25 C135.83333333 77.75 140.16666667 80.25 144.5 82.75 C145.57282227 83.36891113 146.64564453 83.98782227 147.75097656 84.62548828 C149.91447476 85.87371034 152.07788643 87.12208239 154.24121094 88.37060547 C159.70565017 91.52405256 165.17163645 94.67476096 170.640625 97.8203125 C176.04638914 100.93011854 181.44616649 104.05011449 186.84277344 107.17578125 C188.96351769 108.4011293 191.08660625 109.62242815 193.21191406 110.83984375 C196.27158452 112.59253456 199.32388549 114.35746832 202.375 116.125 C203.74833496 116.90544678 203.74833496 116.90544678 205.14941406 117.70166016 C213.3468339 122.48166535 213.3468339 122.48166535 216 127 C216.56640625 129.46484375 216.56640625 129.46484375 216.5625 131.9375 C216.59537109 133.15759766 216.59537109 133.15759766 216.62890625 134.40234375 C215.45777364 139.23963063 212.65791494 141.90595053 208.63256836 144.56225586 C205.68305798 146.27447719 202.69759885 147.89670796 199.6875 149.5 C197.41821192 150.73894785 195.15000838 151.97988394 192.8828125 153.22265625 C191.73200195 153.85059082 190.58119141 154.47852539 189.39550781 155.12548828 C184.23291655 157.97552968 179.14592282 160.94917147 174.0625 163.9375 C172.07178594 165.10445903 170.08089892 166.27112306 168.08984375 167.4375 C167.0932373 168.02144531 166.09663086 168.60539063 165.06982422 169.20703125 C159.7667275 172.30437038 154.44605065 175.37113858 149.125 178.4375 C147.50476929 179.37130493 147.50476929 179.37130493 145.85180664 180.32397461 C143.66203666 181.58576826 141.47217645 182.84740534 139.28222656 184.10888672 C133.85340062 187.23680146 128.42677993 190.36853731 123 193.5 C116.47766725 197.26363919 109.95486238 201.02644622 103.4296875 204.78515625 C92.97793801 210.80747329 82.53700452 216.84669337 72.125 222.9375 C62.86114374 228.35561981 53.55534027 233.69745448 44.22967529 239.00814819 C34.71442134 244.42743954 25.24203549 249.9169365 15.8125 255.484375 C-0.35570872 264.98433945 -0.35570872 264.98433945 -7 264 C-11.9756307 261.51218465 -14.00179801 259.13523709 -16 254 C-16.42448658 250.66960627 -16.40931407 247.37153237 -16.38768005 244.0177002 C-16.39306559 243.01633671 -16.39845113 242.01497323 -16.40399987 240.9832654 C-16.41830015 237.62999441 -16.41117047 234.27711701 -16.40405273 230.92382812 C-16.40975515 228.51891258 -16.41671891 226.11399974 -16.42485046 223.70909119 C-16.44094475 217.85643729 -16.44287994 212.00388255 -16.43763756 206.1512183 C-16.43359385 201.39405979 -16.43504179 196.63693299 -16.44038582 191.879776 C-16.44113424 191.20235777 -16.44188266 190.52493955 -16.44265376 189.8269935 C-16.44418526 188.45077208 -16.44572361 187.07455067 -16.44726873 185.69832927 C-16.46099112 172.79766762 -16.45555766 159.89706664 -16.44408352 146.99640638 C-16.43414867 135.19613687 -16.44709655 123.3960241 -16.47101771 111.59577876 C-16.49540326 99.47503051 -16.5050181 87.35435527 -16.49836498 75.23358297 C-16.49487189 68.43033889 -16.49711084 61.6272154 -16.51461601 54.82398987 C-16.53086863 48.4283293 -16.52616487 42.03289462 -16.50731087 35.63723946 C-16.50361632 33.28864666 -16.50675852 30.94003178 -16.51719666 28.59145927 C-16.53034829 25.38805773 -16.51890996 22.18565787 -16.50120544 18.9822998 C-16.51081045 18.05058724 -16.52041546 17.11887467 -16.53031152 16.15892839 C-16.46708273 10.60754789 -15.72430978 7.39417584 -12 3 C-8.03783354 -0.2125674 -5.02786473 -0.6593921 0 0 Z " fill="#000000" transform="translate(188,124)"/>
</svg>
