<?xml version="1.0" encoding="UTF-8"?>
<svg version="1.1" xmlns="http://www.w3.org/2000/svg" width="512" height="512">
<path d="M0 0 C0 125.4 0 250.8 0 380 C-2.79258054 378.60370973 -5.23158468 377.26867085 -7.81079102 375.57104492 C-8.55434341 375.08302902 -9.29789581 374.59501312 -10.0639801 374.09220886 C-10.86915573 373.56033463 -11.67433136 373.02846039 -12.50390625 372.48046875 C-13.35730087 371.91890579 -14.2106955 371.35734283 -15.08995056 370.77876282 C-17.91587097 368.91762914 -20.73931336 367.05277757 -23.5625 365.1875 C-25.02816406 364.22070312 -25.02816406 364.22070312 -26.5234375 363.234375 C-41.80472292 353.15269579 -57.00631128 342.95747959 -72.16653442 332.69491577 C-85.71176283 323.52802405 -99.32846167 314.47731298 -113 305.5 C-128.47006483 295.3416981 -143.85193641 285.06275981 -159.17724609 274.6875 C-173.62262784 264.91151877 -188.15550597 255.27654922 -202.73608398 245.70361328 C-218.64208469 235.25699002 -234.44401464 224.6626354 -250.19140625 213.97851562 C-251.85665646 212.85009162 -253.52201902 211.72183338 -255.1875 210.59375 C-255.98655762 210.05157837 -256.78561523 209.50940674 -257.60888672 208.95080566 C-261.936344 206.02629903 -266.29251625 203.15593816 -270.69140625 200.33984375 C-271.62122314 199.74353149 -272.55104004 199.14721924 -273.5090332 198.53283691 C-275.30421934 197.3856415 -277.10341004 196.24468304 -278.90698242 195.11071777 C-279.70595947 194.60045044 -280.50493652 194.09018311 -281.328125 193.56445312 C-282.0387207 193.11622192 -282.74931641 192.66799072 -283.48144531 192.20617676 C-283.98256836 191.80813843 -284.48369141 191.4101001 -285 191 C-285 190.34 -285 189.68 -285 189 C-283.61894226 187.85368347 -283.61894226 187.85368347 -281.64331055 186.57104492 C-280.89945602 186.08302902 -280.1556015 185.59501312 -279.38920593 185.09220886 C-278.56338516 184.56033463 -277.73756439 184.02846039 -276.88671875 183.48046875 C-275.59813713 182.63812431 -275.59813713 182.63812431 -274.28352356 181.77876282 C-272.41015332 180.55483733 -270.53478786 179.33396178 -268.65771484 178.11572266 C-263.58889253 174.82511287 -258.53524187 171.51135317 -253.48046875 168.19921875 C-252.4374057 167.51644867 -251.39434265 166.83367859 -250.31967163 166.13021851 C-239.97940015 159.35198134 -229.73423243 152.43685284 -219.5 145.5 C-204.1571442 135.10952384 -188.72893442 124.8583592 -173.23974609 114.6875 C-159.59247662 105.72295137 -146.02102213 96.65375417 -132.5 87.5 C-117.16260393 77.11655769 -101.74358397 66.8669924 -86.26089478 56.70159912 C-72.16659636 47.44466993 -58.15393254 38.07365686 -44.1875 28.625 C-32.79083376 20.91622289 -21.396248 13.20941395 -9.875 5.6875 C-8.48897583 4.78088623 -8.48897583 4.78088623 -7.07495117 3.85595703 C-1.13039996 0 -1.13039996 0 0 0 Z " fill="#E2E2E2" transform="translate(446,66)"/>
<path d="M0 0 C19.14 0 38.28 0 58 0 C58 125.4 58 250.8 58 380 C38.86 380 19.72 380 0 380 C0 254.6 0 129.2 0 0 Z " fill="#E3E3E3" transform="translate(66,66)"/>
</svg>
