<?xml version="1.0" encoding="UTF-8"?>
<svg version="1.1" xmlns="http://www.w3.org/2000/svg" width="512" height="512">
<path d="M0 0 C0.70753418 0.4340918 1.41506836 0.86818359 2.14404297 1.31542969 C3.73665466 2.29513635 5.32462879 3.28240884 6.90869141 4.27587891 C9.80744358 6.09086578 12.7206268 7.88098032 15.63671875 9.66796875 C20.0775667 12.39096886 24.51336585 15.12191153 28.9453125 17.859375 C34.04031404 21.0036343 39.14649506 24.12863526 44.26342773 27.23706055 C46.12337912 28.36698304 47.98227451 29.49864572 49.84008789 30.63208008 C54.47200924 33.45771697 59.11116575 36.26944769 63.77127075 39.0484314 C66.14891906 40.46916751 68.52043345 41.89994861 70.89111328 43.33227539 C72.57585633 44.34544599 74.26829937 45.34577814 75.9609375 46.34570312 C82.99546843 50.60759515 88.6286047 54.48113257 92 62.25 C93.16927941 69.91527612 92.33600129 75.55097036 88.0637207 82.0480957 C85.69982829 85.02324018 82.96830241 86.71634365 79.6875 88.5625 C78.25650342 89.41274864 76.82551429 90.26300981 75.39453125 91.11328125 C74.62061035 91.56396973 73.84668945 92.0146582 73.04931641 92.47900391 C68.45393841 95.17415295 63.92116487 97.97295164 59.375 100.75 C57.38554354 101.95854222 55.39595977 103.16687488 53.40625 104.375 C48.04411541 107.63737624 42.70627117 110.93750627 37.375 114.25 C29.47514749 119.15082024 21.55708545 124.02135533 13.61898804 128.85995483 C12.38883459 129.61032373 11.15934391 130.36178045 9.93057251 131.1144104 C-10.0905959 143.3724721 -10.0905959 143.3724721 -20.4375 141.9375 C-26.62503441 140.32938004 -30.06809671 136.76644238 -33.3046875 131.36328125 C-36.28479573 124.98173915 -35.78098084 119.6085142 -33.51953125 113.078125 C-31.04539071 108.1834354 -27.78917524 105.22497593 -23.12109375 102.45703125 C-22.10982422 101.85052734 -21.09855469 101.24402344 -20.05664062 100.61914062 C-19.00669922 100.00232422 -17.95675781 99.38550781 -16.875 98.75 C-14.79020692 97.50677477 -12.70556465 96.26329659 -10.62109375 95.01953125 C-9.69868896 94.47530518 -8.77628418 93.9310791 -7.82592773 93.37036133 C-5.99967949 92.27476172 -4.20949779 91.11883186 -2.4375 89.9375 C-10.57478208 89.8675661 -18.71193571 89.81447093 -26.84944534 89.78206348 C-30.62923146 89.76649876 -34.40880991 89.74543191 -38.18847656 89.71118164 C-41.84544628 89.67825579 -45.50221798 89.66057813 -49.15932465 89.65286827 C-50.5449815 89.64738365 -51.93062921 89.63667621 -53.31620026 89.62030983 C-70.37457943 89.42708233 -84.67285175 93.28282117 -97.4375 104.9375 C-98.0975 104.9375 -98.7575 104.9375 -99.4375 104.9375 C-99.69917969 105.50597656 -99.96085937 106.07445312 -100.23046875 106.66015625 C-101.53102479 109.11395615 -103.06948052 111.16535908 -104.75 113.375 C-111.2314226 122.49499756 -114.55060422 132.66573902 -114.57794189 143.79798889 C-114.58091302 144.47574747 -114.58388414 145.15350605 -114.5869453 145.85180277 C-114.59559609 148.11613961 -114.59713749 150.38042335 -114.59863281 152.64477539 C-114.60326369 154.2713431 -114.60828871 155.89790973 -114.61367798 157.5244751 C-114.6267812 161.94013277 -114.63324331 166.35577525 -114.63768864 170.77144933 C-114.64062374 173.53397464 -114.64472946 176.29649585 -114.64919281 179.05901909 C-114.66286454 187.71306083 -114.67253182 196.36709313 -114.6763947 205.02114493 C-114.68086968 214.99031391 -114.69839288 224.95934539 -114.7273953 234.92847258 C-114.74906489 242.64674661 -114.75910185 250.36498212 -114.76043582 258.08328623 C-114.76148041 262.68686016 -114.76731374 267.29030478 -114.78525543 271.89384651 C-114.80182678 276.23017713 -114.803848 280.56628252 -114.79511642 284.90263367 C-114.79435078 286.48597253 -114.79862575 288.06932396 -114.80857468 289.65263176 C-114.91002209 306.81714084 -111.55626439 322.27719803 -99.37109375 335.16796875 C-85.9979274 347.4064422 -71.38729418 351.25076786 -53.68009949 351.19819641 C-52.29494929 351.20122095 -50.90980077 351.20511195 -49.52465516 351.20978898 C-45.73719882 351.22003887 -41.94983745 351.21789486 -38.16237342 351.21360838 C-34.07022902 351.21113566 -29.97810715 351.22016213 -25.88597107 351.22764587 C-17.87605051 351.24037999 -9.86616349 351.24218815 -1.85623451 351.23984561 C4.65660986 351.23806075 11.16944406 351.23981569 17.68228722 351.24407005 C19.07404315 351.24496284 19.07404315 351.24496284 20.49391538 351.24587366 C22.3789848 351.24708544 24.26405421 351.24829958 26.14912363 351.24951603 C43.81841881 351.26038674 61.48769489 351.25823138 79.15699115 351.25213119 C95.30818589 351.24696317 111.4593203 351.25821527 127.61050311 351.27722941 C144.20847383 351.29661919 160.80641603 351.30486176 177.40439814 351.30110615 C186.71728449 351.29919575 196.0301195 351.30166596 205.3429966 351.31582069 C213.27174235 351.32775003 221.20040517 351.32912202 229.1291521 351.31703053 C233.17116204 351.31115257 237.2130204 351.31001226 241.25502014 351.32203293 C244.96178284 351.33292811 248.66826805 351.32974559 252.37501796 351.31577124 C254.33712316 351.31189378 256.29924085 351.32264168 258.2613166 351.33406812 C273.90040846 351.23926052 288.22270863 346.80803437 299.79296875 335.87109375 C312.75385328 321.70853781 315.87031256 306.45452361 315.8371582 287.86791992 C315.84151156 286.25061306 315.84669678 284.63330825 315.85264587 283.01600647 C315.86598121 278.64394886 315.86662057 274.27197798 315.86408257 269.89990401 C315.86300897 266.23968802 315.86790626 262.57948929 315.872688 258.91927701 C315.88376467 250.27779575 315.88423121 241.63635796 315.87817383 232.99487305 C315.87213742 224.1045115 315.88444083 215.21430836 315.9057439 206.32397383 C315.92340606 198.66930552 315.92935393 191.0146874 315.92610615 183.35999948 C315.92430022 178.79785464 315.92685999 174.23582276 315.94082069 169.67369652 C315.9534695 165.37997854 315.95138884 161.08650593 315.93840981 156.79279137 C315.9360596 155.22557998 315.93872224 153.65835094 315.94703293 152.09115982 C316.0327667 134.65343699 312.5385765 120.05415521 300.5625 106.9375 C300.5625 106.2775 300.5625 105.6175 300.5625 104.9375 C299.99402344 104.67582031 299.42554688 104.41414063 298.83984375 104.14453125 C296.38604385 102.84397521 294.33464092 101.30551948 292.125 99.625 C280.8803189 91.64544112 269.43306052 89.78912087 256.00854492 89.7956543 C254.27327293 89.79044266 254.27327293 89.79044266 252.50294495 89.78512573 C249.99520025 89.77778477 247.48744913 89.77243056 244.97969627 89.76883507 C241.0071179 89.76165394 237.03462364 89.74632601 233.06208801 89.72749329 C231.69860749 89.72115677 230.33512693 89.71483113 228.97164631 89.70851612 C228.28903661 89.70535031 227.60642692 89.7021845 226.90313208 89.69892275 C217.662569 89.6569495 208.42204861 89.62387894 199.18139648 89.61157227 C192.93723043 89.6031712 186.69328482 89.58060856 180.44922906 89.5422166 C177.15077199 89.52253051 173.85271486 89.51225151 170.55418968 89.51505089 C166.87067019 89.51740808 163.18803808 89.49520423 159.50463867 89.4675293 C157.88418137 89.47743141 157.88418137 89.47743141 156.23098755 89.48753357 C148.51562114 89.39261296 141.87044555 88.15839436 136.1875 82.625 C132.21523002 76.05547657 130.41250289 70.43883753 131.99609375 62.86328125 C133.90096196 56.65175448 137.86212805 53.13195442 143.34982109 49.87755394 C145.9813839 48.75953768 147.92547194 48.6805161 150.7817688 48.67007446 C151.8382663 48.66154449 152.89476379 48.65301453 153.98327637 48.64422607 C155.13751099 48.64513245 156.29174561 48.64603882 157.48095703 48.64697266 C159.31114883 48.63689682 159.31114883 48.63689682 161.17831421 48.62661743 C164.52636266 48.61086315 167.87416293 48.60426111 171.22223139 48.60298586 C173.32163579 48.6015616 175.42101445 48.59728631 177.52041245 48.59199142 C184.86795438 48.57347278 192.21542379 48.56532115 199.56298828 48.56689453 C206.37020557 48.56808925 213.17710233 48.54712456 219.98423874 48.5154072 C225.85463075 48.48904768 231.72491961 48.47853572 237.59537017 48.47980535 C241.0892085 48.48031023 244.58276342 48.47489812 248.0765419 48.45344925 C281.66045702 48.26190545 307.18250068 54.87688932 331.5625 78.9375 C348.76748726 96.10933699 357.03291606 120.29522542 357.10461426 144.22337341 C357.09684229 145.82534993 357.08864995 147.42732444 357.08007812 149.02929688 C357.08551599 150.76775188 357.09264787 152.50620227 357.10131836 154.24464417 C357.11935707 158.9121032 357.11256577 163.57920357 357.09980202 168.24666786 C357.08957228 173.16473886 357.09909505 178.0827821 357.10534668 183.00085449 C357.11259436 191.25501944 357.10311145 199.50904055 357.08398438 207.76318359 C357.06222124 217.26374005 357.06927466 226.76395295 357.09129 236.26450109 C357.10952655 244.46719443 357.11196222 252.66978522 357.10153532 260.87249231 C357.0953455 265.75159479 357.0943388 270.63053657 357.10768127 275.5096283 C357.11936028 280.09984607 357.11099776 284.68962719 357.08810425 289.27979851 C357.08288074 290.94972451 357.08421956 292.6196882 357.09315491 294.28959846 C357.22440084 321.34231648 347.99244633 345.14446457 328.94140625 364.54589844 C328.48636719 365.00512695 328.03132813 365.46435547 327.5625 365.9375 C326.758125 366.75476563 325.95375 367.57203125 325.125 368.4140625 C304.91925562 387.75574544 277.87316463 393.10508848 250.8952179 393.07121277 C249.54419221 393.0730849 248.19316706 393.0753872 246.84214276 393.07807809 C243.15816294 393.08415277 239.47420596 393.08406765 235.79022229 393.08288372 C231.80574711 393.08267861 227.82127906 393.08820895 223.83680725 393.09294128 C216.0410601 393.1012246 208.24532051 393.10399507 200.44956932 393.10455366 C194.10843461 393.10502993 187.76730237 393.10709018 181.42616844 393.11025429 C163.4214981 393.11905455 145.41683371 393.12367465 127.41216121 393.12292381 C126.44284967 393.12288386 125.47353813 393.1228439 124.47485352 393.12280273 C123.01909727 393.12274141 123.01909727 393.12274141 121.53393181 393.12267885 C105.81237101 393.12227257 90.09083418 393.13183939 74.36928032 393.1459411 C58.20063568 393.16032864 42.03200272 393.16720998 25.86335152 393.16634732 C16.79629928 393.16601618 7.72927217 393.1687272 -1.33777428 393.17952538 C-9.05846555 393.18866171 -16.7791203 393.19078001 -24.49981465 393.18401595 C-28.43294136 393.1807665 -32.36599812 393.18063661 -36.29911804 393.1893692 C-68.96196644 393.25738052 -99.31799525 391.28247145 -124.4375 367.9375 C-125.31019531 367.133125 -126.18289062 366.32875 -127.08203125 365.5 C-142.77759012 350.43979358 -154.71982606 328.57863974 -155.57172108 306.45118999 C-155.57599456 305.15879312 -155.58026804 303.86639624 -155.58467102 302.53483582 C-155.59018605 301.44870411 -155.59018605 301.44870411 -155.5958125 300.34063035 C-155.60678537 297.92524038 -155.61068233 295.50989352 -155.61450195 293.09448242 C-155.62077173 291.35765448 -155.62741899 289.62082786 -155.63441467 287.88400269 C-155.6554067 282.18700078 -155.66581661 276.48999878 -155.67578125 270.79296875 C-155.67983145 268.82518309 -155.68394845 266.85739758 -155.68813133 264.8896122 C-155.70717703 255.63702376 -155.72140602 246.38444324 -155.7297433 237.13183898 C-155.73949573 226.48690962 -155.76576564 215.8421893 -155.80624419 205.19733351 C-155.83652462 196.94818112 -155.85122366 188.69908821 -155.85452431 180.44988137 C-155.85686235 175.53368958 -155.86565821 170.61772124 -155.89098549 165.70158958 C-155.91447911 161.06642836 -155.9184151 156.4316343 -155.90822411 151.79642868 C-155.90773367 150.10875404 -155.91390613 148.42105999 -155.92778015 146.73344231 C-156.12939914 120.72211977 -147.7334727 97.46392139 -129.7734375 78.30859375 C-112.43564275 60.70986229 -90.17088146 49.04469014 -65.12524414 48.73217773 C-64.43171844 48.72227814 -63.73819275 48.71237854 -63.02365112 48.70217896 C-60.75668623 48.67087227 -58.48970046 48.64593008 -56.22265625 48.62109375 C-54.64081818 48.6004975 -53.05898527 48.57950037 -51.47715759 48.55812073 C-47.33279637 48.50317563 -43.18838777 48.45364592 -39.04394531 48.40527344 C-34.80724925 48.35485594 -30.5706212 48.29927603 -26.33398438 48.24414062 C-18.03521391 48.13689666 -9.73638619 48.03537809 -1.4375 47.9375 C-2.57179443 47.26545532 -2.57179443 47.26545532 -3.72900391 46.57983398 C-6.56427597 44.89184087 -9.39228768 43.19278144 -12.21630859 41.48608398 C-13.43368811 40.75343466 -14.65369756 40.02513517 -15.87646484 39.30151367 C-31.79232467 29.87302598 -31.79232467 29.87302598 -34.4375 21.9375 C-35.11498107 14.86266194 -35.44468163 8.47840031 -31.0625 2.58984375 C-21.87466721 -6.752592 -10.65068581 -6.82313781 0 0 Z " fill="#E3E3E3" transform="translate(155.4375,62.0625)"/>
<path d="M0 0 C4.3941987 3.18065607 7.03316695 7.13180202 8.75390625 12.26953125 C9.00838184 14.80456448 9.00838184 14.80456448 9.01460266 17.53794861 C9.02168747 18.57950607 9.02877228 19.62106354 9.03607178 20.69418335 C9.03359436 21.82627228 9.03111694 22.95836121 9.02856445 24.12475586 C9.03367538 25.32529099 9.03878632 26.52582611 9.04405212 27.76274109 C9.05555817 31.04791436 9.05802368 34.33293091 9.05548882 37.618119 C9.05441741 40.36410143 9.05930682 43.1100607 9.06409425 45.85603815 C9.07518053 52.3359279 9.07563175 58.81575966 9.06958008 65.2956543 C9.06353976 71.97299911 9.07585464 78.65013324 9.09715015 85.32744211 C9.11478184 91.06773021 9.12076506 96.80795134 9.1175124 102.54826552 C9.11570194 105.97346291 9.11831189 109.39850999 9.13222694 112.82368279 C9.14455384 116.64425803 9.1378216 120.46434477 9.1262207 124.28491211 C9.13768631 125.98000916 9.13768631 125.98000916 9.14938354 127.70935059 C9.10108512 134.90061509 8.25096114 139.36754854 3.44140625 144.95703125 C-2.34670214 149.93749661 -6.90677723 150.76789872 -14.40625 150.5546875 C-20.61072328 149.93167987 -24.27465638 146.88498549 -28.24609375 142.26953125 C-32.0663193 136.55573436 -31.67665506 130.95930868 -31.65014648 124.33251953 C-31.65700974 123.13505096 -31.66387299 121.9375824 -31.67094421 120.7038269 C-31.68607843 117.43090943 -31.68771447 114.15835024 -31.68200183 110.88541269 C-31.67890364 108.14701449 -31.68500956 105.40866743 -31.69104058 102.67027652 C-31.70507207 96.2060848 -31.70353666 89.74202526 -31.69213867 83.27783203 C-31.68066459 76.6237257 -31.69472393 69.97002276 -31.72153515 63.31596959 C-31.74373719 57.59005219 -31.75031926 51.86426099 -31.74445873 46.13830364 C-31.74109794 42.72419567 -31.74344489 39.31034608 -31.76070976 35.89627457 C-31.77561237 32.08565669 -31.76494597 28.27592256 -31.74780273 24.46533203 C-31.7574707 23.34402893 -31.76713867 22.22272583 -31.77709961 21.06744385 C-31.71012652 13.94607508 -30.82591183 8.11917995 -25.83423519 2.75125313 C-18.33879522 -3.91428906 -8.74878068 -5.00182815 0 0 Z " fill="#E3E3E3" transform="translate(267.24609375,214.73046875)"/>
</svg>
