<?xml version="1.0" encoding="UTF-8"?>
<svg version="1.1" xmlns="http://www.w3.org/2000/svg" width="512" height="512">
<path d="M0 0 C2.55893252 1.92811096 4.77646895 4.10008521 7.0168457 6.38574219 C7.65547043 7.01721161 8.29409515 7.64868103 8.95207214 8.29928589 C11.03919711 10.36963721 13.10777546 12.45743961 15.17578125 14.546875 C16.63226903 16.0025331 18.08957349 17.45737447 19.5476532 18.91143799 C22.59230489 21.95323945 25.62803681 25.00359111 28.6574707 28.06054688 C32.5301903 31.9673618 36.42264968 35.85377721 40.32178974 39.73420334 C43.33105806 42.73287571 46.33045871 45.74126369 49.32692528 48.75272369 C50.75818808 50.18914861 52.19225894 51.62278146 53.62923622 53.05348969 C55.63949714 55.05826673 57.63629716 57.07557734 59.63012695 59.09667969 C60.51306931 59.96983322 60.51306931 59.96983322 61.41384888 60.86062622 C66.75184018 66.32260396 70.5845687 72.20818186 70.5 80.0625 C70.51546875 81.50302734 70.51546875 81.50302734 70.53125 82.97265625 C69.26164123 90.20755918 64.34550609 95.09502412 59.32299805 100.08105469 C58.66066162 100.75025436 57.9983252 101.41945404 57.31591797 102.1089325 C55.13877399 104.30427957 52.95082749 106.48846318 50.76171875 108.671875 C49.23684214 110.20131577 47.7123371 111.73112708 46.18818665 113.2612915 C42.99806202 116.46033398 39.8023431 119.65365707 36.6027832 122.84326172 C32.50874416 126.92580008 28.43079464 131.02399679 24.35711956 135.1268425 C21.21483659 138.2874911 18.06327412 141.43875688 14.90894508 144.58737946 C13.40162452 146.09454692 11.89739435 147.60481182 10.39636803 149.11824799 C8.29544701 151.23408675 6.18211959 153.33672222 4.06518555 155.43652344 C3.14456078 156.37165016 3.14456078 156.37165016 2.20533752 157.32566833 C-2.30882498 161.76387007 -6.454054 164.50924492 -12.87890625 165.3984375 C-19.97322072 165.33647842 -24.2365072 164.44215643 -29.6875 159.625 C-34.60402773 154.04407664 -36.15933028 149.43161935 -36 142 C-33.97440642 130.16967155 -21.17471682 121.05148119 -13.0625 113 C-11.88973991 111.83226626 -10.71721202 110.66429926 -9.54492188 109.49609375 C-6.69928311 106.66136766 -3.85052547 103.82981176 -1 101 C-16.01307644 100.92964219 -31.02614001 100.87688156 -46.03934669 100.84456348 C-53.01163906 100.82915285 -59.98382846 100.80817573 -66.95605469 100.77368164 C-73.69285867 100.74036841 -80.42953395 100.72311359 -87.1664238 100.71536827 C-89.72825166 100.70985317 -92.29007412 100.69908399 -94.85185623 100.68280983 C-115.54015949 100.55668865 -133.58817529 101.0870742 -150.5546875 114.1953125 C-153 116 -153 116 -155.1953125 116.9921875 C-157.52714819 118.29438146 -157.93674323 119.58965097 -159 122 C-159.89546086 123.16248082 -160.8138263 124.30754841 -161.75 125.4375 C-173.31156903 140.59789076 -174.15187562 157.64583393 -174.14526367 175.93823242 C-174.14826346 177.30304047 -174.15166784 178.66784768 -174.15544128 180.03265381 C-174.164203 183.70858394 -174.16661609 187.38449072 -174.16725707 191.06043029 C-174.16797214 193.36638802 -174.17011504 195.67233999 -174.17275429 197.97829628 C-174.18198242 206.04974361 -174.18609243 214.12117452 -174.18530273 222.19262695 C-174.18470291 229.67305062 -174.19524264 237.15340197 -174.2110464 244.63380736 C-174.224196 251.09197866 -174.22948353 257.55012654 -174.22884732 264.00831109 C-174.22859447 267.84953732 -174.23132628 271.69069917 -174.24202538 275.53191185 C-174.86504617 312.99093795 -174.86504617 312.99093795 -157.64453125 345.44140625 C-142.63044729 359.67090625 -125.87902377 364.32430537 -105.62297058 364.26069641 C-103.66358432 364.26643473 -103.66358432 364.26643473 -101.6646145 364.27228898 C-98.06796158 364.28250793 -94.47140903 364.28040287 -90.87474811 364.27610838 C-86.98437436 364.27362998 -83.09402407 364.28266912 -79.20365906 364.29014587 C-71.59306198 364.30286422 -63.98250024 364.30469013 -56.37189432 364.30234561 C-50.18234138 364.30055902 -43.99279912 364.3023194 -37.80324745 364.30657005 C-36.92066436 364.30716524 -36.03808128 364.30776043 -35.12875325 364.30837366 C-33.33549036 364.30958547 -31.54222747 364.31079961 -29.74896459 364.31201603 C-12.94945249 364.32288062 3.85003951 364.32073425 20.64955273 364.31463119 C35.99742117 364.30946347 51.34522612 364.32071558 66.69308201 364.33972941 C82.47525705 364.35913048 98.25740208 364.3673598 114.03958911 364.36360615 C122.89084793 364.36169749 131.74205272 364.3641489 140.59330177 364.37832069 C148.12888288 364.39026446 155.6643767 364.39160594 163.19995908 364.37953053 C167.0397069 364.37366269 170.87929531 364.3724839 174.71903229 364.38453293 C178.89348628 364.39747934 183.06756475 364.38687761 187.24201965 364.3742218 C188.43884001 364.38159609 189.63566037 364.38897037 190.86874801 364.39656812 C208.17496332 364.28675966 225.40718159 359.47512852 238 347 C253.2624454 329.24829251 256.15348751 311.8135583 256.14526367 289.06176758 C256.14826346 287.69695953 256.15166784 286.33215232 256.15544128 284.96734619 C256.164203 281.29141606 256.16661609 277.61550928 256.16725707 273.93956971 C256.16797214 271.63361198 256.17011504 269.32766001 256.17275429 267.02170372 C256.18198242 258.95025639 256.18609243 250.87882548 256.18530273 242.80737305 C256.18470291 235.32694938 256.19524264 227.84659803 256.2110464 220.36619264 C256.224196 213.90802134 256.22948353 207.44987346 256.22884732 200.99168891 C256.22859447 197.15046268 256.23132628 193.30930083 256.24202538 189.46808815 C256.77422656 155.00324672 256.77422656 155.00324672 243 124 C242.27941406 123.2884375 241.55882812 122.576875 240.81640625 121.84375 C239 120 239 120 239 118 C238.41476562 117.72800781 237.82953125 117.45601563 237.2265625 117.17578125 C235.03850838 116.02033513 233.29721302 114.73753986 231.375 113.1875 C220.28335518 104.76606597 207.40836825 100.90282521 193.54907227 100.8581543 C192.31411514 100.85111984 191.07915802 100.84408539 189.80677795 100.83683777 C188.48995529 100.83267349 187.17313263 100.82850922 185.81640625 100.82421875 C184.43309275 100.81377655 183.04978636 100.80235101 181.66648865 100.78999329 C175.82285609 100.73788218 169.97935824 100.68956466 164.13549805 100.67407227 C160.54802831 100.66394347 156.96114988 100.63450767 153.37391472 100.59275246 C151.36007655 100.57461213 149.34608632 100.57707865 147.33216858 100.58000183 C139.60086573 100.47702512 133.39766737 100.11103397 127.49000549 94.58842468 C122.57581374 89.09490357 121.51651647 83.9354868 121.69921875 76.78125 C122.28287998 71.38427863 123.94549495 67.72653819 128.12890625 64.2109375 C133.86065619 60.22609652 137.95340562 58.88414339 144.93579102 58.83886719 C146.13547012 58.82925964 147.33514923 58.8196521 148.57118225 58.80975342 C149.86898117 58.80550354 151.16678009 58.80125366 152.50390625 58.796875 C153.50540868 58.79263393 153.50540868 58.79263393 154.52714348 58.78830719 C158.07628649 58.77331279 161.625389 58.76409108 165.17456055 58.75976562 C168.07312869 58.75541729 170.97139306 58.74167005 173.86987305 58.71875 C210.93041412 58.43145501 241.73636985 63.70828165 269.375 90 C288.90370417 110.52591459 297.31069087 135.74462558 297.29052734 163.56274414 C297.29652156 165.22134704 297.30332915 166.87994717 297.31088257 168.5385437 C297.32846306 173.0203701 297.3332347 177.50212 297.33451414 181.98397756 C297.3359413 184.7926399 297.34022165 187.60128314 297.34550858 190.40994072 C297.36398557 200.2331858 297.37218249 210.05637679 297.37060547 219.87963867 C297.36940608 228.99546975 297.39047458 238.11106331 297.4220928 247.22683436 C297.44836618 255.08542195 297.45896809 262.94393251 297.45769465 270.80256361 C297.45718807 275.48170715 297.46270043 280.16063957 297.48405075 284.83973885 C297.5036196 289.24844229 297.50343229 293.65673732 297.48901749 298.06545639 C297.48695087 299.6692751 297.49149945 301.27312065 297.5037384 302.876894 C297.6970196 329.99482473 288.01312258 353.65125051 270 374 C269.08154297 375.04414062 269.08154297 375.04414062 268.14453125 376.109375 C251.43510378 393.92326357 227.11414198 404.09443073 203 406 C198.57025871 406.14167498 194.14335281 406.13931565 189.71162415 406.13371277 C188.37739838 406.13558378 187.04317316 406.13788563 185.70894879 406.14057809 C182.06219529 406.14666674 178.41546481 406.14656597 174.76870739 406.14538372 C170.82786213 406.14517896 166.88702411 406.15070559 162.94618225 406.15544128 C155.23238051 406.16373243 147.51858641 406.16649544 139.80478058 406.16705366 C133.53127725 406.16752958 127.25777644 406.16958811 120.98427391 406.17275429 C103.17900605 406.1815569 85.3737442 406.18617431 67.56847415 406.18542381 C66.60945434 406.18538386 65.65043453 406.1853439 64.66235352 406.18530273 C63.70215619 406.18526185 62.74195886 406.18522097 61.75266465 406.18517885 C46.19775515 406.18477256 30.64286987 406.1943389 15.08796737 406.2084411 C-0.90206235 406.22282283 -16.89208027 406.22971029 -32.88211662 406.22884732 C-41.85188401 406.22851596 -50.82162601 406.23123636 -59.79138756 406.24202538 C-67.42947359 406.25115408 -75.06752271 406.25328624 -82.70561185 406.24651595 C-86.59797179 406.2432626 -90.49026102 406.24315094 -94.38261414 406.2518692 C-97.95496369 406.25978796 -101.52718709 406.2582486 -105.09953377 406.24958507 C-106.98460347 406.24734749 -108.86967726 406.25483632 -110.75473136 406.26282471 C-141.46835123 406.14010319 -167.45743234 394.46951134 -189.08984375 372.91796875 C-204.42883338 356.54625506 -215.0689853 333.46682496 -215.14717102 310.90104675 C-215.15268605 309.86391768 -215.15268605 309.86391768 -215.1583125 308.8058365 C-215.16927931 306.50100244 -215.17318129 304.19621358 -215.17700195 301.89135742 C-215.18327221 300.23334615 -215.18991951 298.57533626 -215.19691467 296.91732788 C-215.21790175 291.48005135 -215.22831644 286.04277473 -215.23828125 280.60546875 C-215.2423317 278.72683511 -215.2464487 276.84820161 -215.25063133 274.96956825 C-215.26967628 266.13558574 -215.28390519 257.30161152 -215.2922433 248.46761245 C-215.30199413 238.30716291 -215.32826011 228.14693248 -215.36874419 217.98656005 C-215.39903461 210.11107752 -215.41372461 202.23565732 -215.41702431 194.36011773 C-215.41936131 189.66748679 -215.42814311 184.97509007 -215.45348549 180.2825222 C-215.4769967 175.85747452 -215.48090831 171.43281141 -215.47072411 167.00771713 C-215.47023408 165.39744464 -215.47639398 163.7871517 -215.49028015 162.17693901 C-215.71119926 135.0042757 -206.00704792 111.41458363 -188 91 C-187.46117187 90.37738281 -186.92234375 89.75476563 -186.3671875 89.11328125 C-169.00044181 70.39384934 -142.26124384 59.99900224 -117.15803719 58.87246323 C-109.01468008 58.64345123 -100.8686811 58.62287949 -92.72265625 58.5859375 C-90.09849966 58.567198 -87.47434891 58.54762258 -84.85020447 58.5272522 C-78.68835922 58.48081092 -72.52649682 58.44390138 -66.36456817 58.41057932 C-59.33890624 58.37211009 -52.31333313 58.32276662 -45.28774655 58.27259517 C-30.85856633 58.169792 -16.42932244 58.08036696 -2 58 C-2.79696289 57.21874756 -3.59392578 56.43749512 -4.41503906 55.63256836 C-7.38973599 52.7124611 -10.35425625 49.78219922 -13.31591797 46.84887695 C-14.59542012 45.58439547 -15.87761037 44.3226277 -17.16259766 43.0637207 C-19.01670368 41.24629405 -20.86069603 39.41909823 -22.703125 37.58984375 C-23.2730719 37.03538071 -23.8430188 36.48091766 -24.43023682 35.90965271 C-29.99746683 30.34475768 -33.63676102 24.7221068 -34.25 16.75 C-33.80354971 10.05324563 -32.18447766 5.73024518 -27.1875 1.125 C-18.28879081 -5.99072556 -9.51772086 -5.27498819 0 0 Z " fill="#E3E3E3" transform="translate(215,55)"/>
</svg>
