<?xml version="1.0" encoding="UTF-8"?>
<svg version="1.1" xmlns="http://www.w3.org/2000/svg" width="512" height="512">
<path d="M0 0 C4.90036415 4.90036415 7.35573597 10.50527565 7.39717102 17.42214966 C7.40790398 18.65822212 7.40790398 18.65822212 7.41885376 19.91926575 C7.42154266 20.81489731 7.42423157 21.71052887 7.42700195 22.63330078 C7.43357315 23.58342545 7.44014435 24.53355011 7.44691467 25.51246643 C7.46662338 28.6567493 7.47830619 31.8009844 7.48828125 34.9453125 C7.49235678 36.02138638 7.4964323 37.09746025 7.50063133 38.20614243 C7.52148378 43.90402789 7.53578793 49.60188934 7.54516602 55.29980469 C7.55621619 61.17068918 7.59060273 67.04119319 7.63033772 72.91194344 C7.65654763 77.43829021 7.66486186 81.96454701 7.66844749 86.49096298 C7.67330372 88.65418944 7.68489005 90.81741214 7.70348549 92.98056412 C7.72796499 96.01745537 7.72689543 99.05337129 7.7199707 102.09033203 C7.73918579 103.41556129 7.73918579 103.41556129 7.75878906 104.76756287 C7.70118811 111.74362685 6.24869799 118.67726713 1.65771675 124.14709091 C-2.66854074 128.32664918 -7.81553053 130.1107988 -13.44921875 131.9140625 C-14.85459396 132.38590469 -14.85459396 132.38590469 -16.2883606 132.86727905 C-19.33313591 133.88546144 -22.38494293 134.88041863 -25.4375 135.875 C-27.54370175 136.57404964 -29.64941136 137.27458375 -31.75463867 137.9765625 C-36.01821799 139.39561516 -40.28463368 140.80558432 -44.55371094 142.20800781 C-50.30756953 144.10003333 -56.05007165 146.02435236 -61.7890625 147.9609375 C-65.04665351 149.05795039 -68.30452422 150.15413041 -71.5625 151.25 C-72.33234222 151.50920227 -73.10218445 151.76840454 -73.89535522 152.03546143 C-76.03984665 152.75605036 -78.18567778 153.47247962 -80.33203125 154.1875 C-81.53061768 154.58839844 -82.7292041 154.98929688 -83.96411133 155.40234375 C-86.75 156.25 -86.75 156.25 -88.75 156.25 C-88.74723462 157.3109148 -88.74446924 158.37182961 -88.74162006 159.46489334 C-88.67495549 185.30582699 -88.62569143 211.14674946 -88.59456348 236.98775101 C-88.57910928 249.48437816 -88.55804737 261.98094843 -88.52368164 274.47753906 C-88.49373505 285.37238757 -88.47441449 296.26719487 -88.46773452 307.16208339 C-88.46383119 312.92826996 -88.45468787 318.69433865 -88.43280983 324.46048737 C-88.41236163 329.89410443 -88.40618302 335.32755569 -88.41067696 340.76120758 C-88.40985548 342.7492971 -88.40393975 344.7373925 -88.39238358 346.72544861 C-88.28779641 365.65559847 -90.73002318 381.71573009 -104.4140625 395.9453125 C-105.18492187 396.70585937 -105.95578125 397.46640625 -106.75 398.25 C-107.78253906 399.29800781 -107.78253906 399.29800781 -108.8359375 400.3671875 C-127.41247075 418.11502781 -154.30689505 423.73863889 -179.1953125 423.3984375 C-200.52902305 422.85643153 -223.73654763 415.84873007 -239.75 401.25 C-240.58015625 400.51136719 -241.4103125 399.77273438 -242.265625 399.01171875 C-253.76536951 388.21779688 -260.47568572 374.98531714 -261 359.1875 C-260.76509965 343.40646718 -254.40300171 330.11664724 -243.546875 318.81640625 C-221.89428245 298.94803571 -194.35618034 292.98419828 -165.75976562 294.06347656 C-153.19104767 294.84239452 -132.05643308 297.94356692 -122.75 307.25 C-122.74910437 306.4071108 -122.74910437 306.4071108 -122.74819064 305.54719353 C-122.71229018 272.23668318 -122.65564124 238.92628028 -122.57207905 205.61585647 C-122.56206169 201.61548671 -122.55221754 197.61511654 -122.54248047 193.61474609 C-122.53956841 192.4201526 -122.53956841 192.4201526 -122.53659752 191.20142591 C-122.50558349 178.30934758 -122.48859854 165.41728704 -122.47680578 152.52517843 C-122.46439112 139.29490386 -122.43688262 126.06472263 -122.39538693 112.83450699 C-122.3702605 104.6719158 -122.35688209 96.50947944 -122.35857043 88.34684902 C-122.35860372 82.08581498 -122.33762825 75.82501095 -122.30883217 69.56404686 C-122.30031041 66.99700452 -122.29859859 64.42992918 -122.30419731 61.8628788 C-122.31082403 58.35770308 -122.29294642 54.85346953 -122.26898193 51.34838867 C-122.27674235 50.33280821 -122.28450277 49.31722775 -122.29249835 48.27087212 C-122.19869835 40.51951717 -120.37857654 34.81258719 -115 29.125 C-111.52429468 26.38420878 -107.67922467 24.92653876 -103.55761719 23.43286133 C-102.85534374 23.17424474 -102.1530703 22.91562815 -101.42951584 22.64917469 C-93.53048373 19.76389279 -85.55946521 17.09611123 -77.578125 14.44921875 C-75.99624421 13.92232402 -74.41443827 13.39520449 -72.83270264 12.86787415 C-69.55607744 11.77618114 -66.27880166 10.68647354 -63.00097656 9.59838867 C-58.80374526 8.20503202 -54.60787623 6.80762468 -50.41243362 5.40889263 C-47.16322662 4.32591417 -43.91350143 3.24449817 -40.66359711 2.16361427 C-39.11493821 1.64845241 -37.56639861 1.13293175 -36.01798248 0.61704063 C-33.86567685 -0.09967192 -31.71272462 -0.81440623 -29.55957031 -1.52856445 C-28.33763977 -1.93460403 -27.11570923 -2.34064362 -25.85675049 -2.75898743 C-16.23588638 -5.82791663 -8.59536364 -5.46977686 0 0 Z " fill="#FFFFFF" transform="translate(470.75,46.75)"/>
<path d="M0 0 C0.90079495 -0.00297112 1.8015899 -0.00594224 2.72968167 -0.0090034 C5.76048618 -0.01770342 8.79125124 -0.01919975 11.82206726 -0.02069092 C13.99008774 -0.02531815 16.15810739 -0.03034268 18.3261261 -0.03573608 C24.22492321 -0.04887082 30.12370894 -0.05530709 36.0225184 -0.05974674 C39.70595405 -0.06267561 43.38938658 -0.06678006 47.07282066 -0.07125092 C58.59195737 -0.0849284 70.11108694 -0.09459394 81.6302312 -0.09845281 C94.93766925 -0.10293495 108.24495989 -0.12048904 121.55236942 -0.1494534 C131.83184626 -0.17105245 142.1112942 -0.18115613 152.3907935 -0.18249393 C158.53344012 -0.18354319 164.67599028 -0.1894768 170.81861305 -0.20731354 C176.59616398 -0.22376354 182.37354563 -0.22596461 188.1511116 -0.21717453 C190.27233648 -0.21640252 192.39357034 -0.22076835 194.51477242 -0.23063278 C197.40946509 -0.2433054 200.30355398 -0.23750085 203.19824219 -0.22705078 C204.03861835 -0.23510719 204.87899452 -0.24316359 205.74483663 -0.25146413 C211.34708145 -0.20412901 215.67652523 0.70116153 219.93412781 4.67559814 C224.67420082 10.87415516 225.1643038 15.36747524 224.28959656 23.14044189 C222.64116512 27.21888865 220.47255879 29.41018112 216.75630951 31.70427895 C212.38153247 33.51662764 208.82532965 33.55843079 204.14250183 33.52139282 C203.2309765 33.52607279 202.31945117 33.53075277 201.38030386 33.53557456 C198.33103915 33.54752458 195.28222385 33.53806717 192.23295593 33.52862549 C190.04478697 33.53269118 187.85662005 33.53803304 185.66845703 33.54455566 C179.72846508 33.5582353 173.78862941 33.55292786 167.84863472 33.54341841 C161.63343508 33.53582522 155.41824886 33.54286648 149.20304871 33.5475769 C138.09693836 33.55338511 126.99088951 33.5440598 115.88479131 33.52879889 C105.8193331 33.51539602 95.75397868 33.51772421 85.68852234 33.53155518 C73.99381612 33.54761742 62.29917047 33.55358167 50.60445452 33.54471838 C44.41603637 33.54004034 38.22768969 33.5394207 32.03927612 33.54932785 C26.2214464 33.55799106 20.40381279 33.55198719 14.58600426 33.53464508 C12.45027174 33.53067682 10.31452273 33.53182006 8.17879677 33.53843307 C5.26453846 33.54662505 2.35090945 33.53635506 -0.56330872 33.52139282 C-1.83247627 33.53143107 -1.83247627 33.53143107 -3.12728357 33.54167211 C-8.06328753 33.49248304 -11.42380183 32.85134839 -15.71040344 30.14044189 C-19.59489142 26.04014903 -21.45110952 22.43087154 -22.08540344 16.82794189 C-21.61875582 12.23924029 -20.38254917 8.89942366 -17.71040344 5.14044189 C-11.86560905 0.48846268 -7.2433821 -0.00740939 0 0 Z " fill="#FFFFFF" transform="translate(55.71040344238281,89.85955810546875)"/>
<path d="M0 0 C0.91712916 -0.00367669 1.83425832 -0.00735338 2.77917928 -0.01114148 C5.86525822 -0.0221916 8.95130351 -0.02602439 12.03739929 -0.02983093 C14.24482836 -0.0360945 16.45225638 -0.0427412 18.65968323 -0.04974365 C24.66591157 -0.06716135 30.67213195 -0.07770717 36.6783793 -0.08594918 C40.42881868 -0.09109691 44.17925559 -0.0971727 47.92969322 -0.10346031 C58.31390333 -0.12032945 68.69811187 -0.13496506 79.08233356 -0.14220905 C81.77650262 -0.14411893 84.47067167 -0.14603927 87.1648407 -0.147995 C87.83445865 -0.14847874 88.50407661 -0.14896248 89.19398602 -0.14946087 C100.04385933 -0.15776304 110.89362245 -0.18310403 121.74344764 -0.21557567 C132.88322948 -0.24864332 144.02297143 -0.26632468 155.16280621 -0.26985329 C161.41726898 -0.27220716 167.67155754 -0.2812117 173.92597389 -0.30631447 C179.80861793 -0.32954372 185.6909724 -0.33384905 191.57365036 -0.32355309 C193.73358179 -0.32305639 195.89352722 -0.32941601 198.0534153 -0.34310913 C201.00080329 -0.36075046 203.94714328 -0.35375988 206.89453125 -0.34057617 C207.75047121 -0.35154542 208.60641117 -0.36251466 209.4882887 -0.37381631 C214.85569316 -0.31579965 217.86302992 0.61237333 222.13774109 4.14717102 C225.76607772 7.96647274 226.44774567 11.02996108 226.63774109 16.14717102 C226.44774567 21.26438096 225.76607772 24.3278693 222.13774109 28.14717102 C217.0168614 32.37708384 213.27046926 32.72152094 206.91471863 32.65510559 C205.99502619 32.66134555 205.07533376 32.66758552 204.12777185 32.67401457 C201.05075484 32.68994983 197.97452939 32.677338 194.89750671 32.66474915 C192.68963153 32.67017001 190.48175997 32.67729247 188.27389526 32.68598938 C182.28014704 32.70422971 176.28667412 32.6971521 170.29292107 32.68447304 C164.02166372 32.67434915 157.75043002 32.68373703 151.47917175 32.6900177 C140.27284066 32.69776211 129.0666231 32.68532796 117.86031872 32.66498035 C107.70387011 32.64710979 97.54760437 32.65021404 87.39115906 32.6686554 C75.59097257 32.69007137 63.79087464 32.69802427 51.99066496 32.68620634 C45.74633614 32.67996876 39.50213324 32.67914319 33.2578125 32.69235229 C27.38739793 32.70390292 21.5173289 32.69589904 15.64695168 32.67277527 C13.491871 32.66748403 11.33676126 32.66900901 9.18169212 32.67782593 C6.24098939 32.68874826 3.30139553 32.6750573 0.36076355 32.65510559 C-0.49313005 32.66402848 -1.34702365 32.67295136 -2.22679281 32.68214464 C-7.58228367 32.61161137 -10.6006375 31.67916203 -14.86225891 28.14717102 C-18.94580707 23.62215819 -20.17855309 20.35651812 -20.07710266 14.20185852 C-19.48191887 8.5097372 -16.01193987 4.77814186 -11.86225891 1.14717102 C-7.9062471 -0.17149958 -4.12445719 -0.00088148 0 0 Z " fill="#FFFFFF" transform="translate(53.86225891113281,175.8528289794922)"/>
<path d="M0 0 C1.15660629 -0.0071553 2.31321259 -0.01431061 3.50486755 -0.02168274 C4.77505737 -0.02437164 6.04524719 -0.02706055 7.35392761 -0.02983093 C8.70422541 -0.03609696 10.05452148 -0.04274389 11.40481567 -0.04974365 C15.83990786 -0.07076828 20.27500034 -0.0811439 24.71012878 -0.09111023 C26.23765773 -0.09515825 27.7651865 -0.09927519 29.29271507 -0.10346031 C36.46881331 -0.12250775 43.64490129 -0.13674023 50.82101995 -0.14507228 C59.10199462 -0.15484623 67.3827021 -0.18117154 75.66358262 -0.22157317 C82.06623397 -0.25173828 88.46880873 -0.26654148 94.87152976 -0.26985329 C98.69476567 -0.27220317 102.517716 -0.28115525 106.34087563 -0.30631447 C109.93853371 -0.3296077 113.53571841 -0.33382375 117.13343239 -0.32355309 C119.07891011 -0.32282229 121.02436385 -0.34190436 122.96974182 -0.36161804 C133.62360166 -0.29812081 133.62360166 -0.29812081 138.44059753 4.14717102 C142.87033473 9.17552135 143.74076342 12.02882393 143.65544128 18.60810852 C143.2519457 23.37669274 141.4810565 26.16147305 138.06559753 29.39717102 C133.64472055 32.34442234 130.07133767 33.39646872 124.76803589 33.41459656 C123.63681305 33.42312653 122.50559021 33.43165649 121.34008789 33.44044495 C120.10828293 33.43953857 118.87647797 33.4386322 117.60734558 33.43769836 C115.65042786 33.4477742 115.65042786 33.4477742 113.65397644 33.45805359 C110.08151642 33.47569309 106.50915226 33.48040813 102.9366529 33.48168516 C100.70214137 33.48310863 98.46765407 33.48738196 96.23314857 33.4926796 C88.43029361 33.51117401 80.62750689 33.51935106 72.82463074 33.51777649 C65.5633414 33.51657566 58.30234957 33.53766775 51.04113549 33.56926382 C44.79721043 33.5954603 38.55338233 33.60614236 32.30940276 33.60486567 C28.5845158 33.60435697 24.85989325 33.60998878 21.13506126 33.63122177 C16.97718012 33.65427684 12.81996071 33.64506274 8.66203308 33.63301086 C7.43630081 33.64424988 6.21056854 33.65548889 4.94769287 33.66706848 C-2.02132299 33.61577093 -6.66744453 32.9754178 -12.55940247 29.14717102 C-16.72854903 23.90901251 -18.10667671 19.8239168 -17.55940247 13.14717102 C-15.74947635 7.87477755 -13.32487865 4.20196345 -8.55940247 1.14717102 C-5.44343805 0.10851621 -3.26885597 0.0138709 0 0 Z " fill="#FFFFFF" transform="translate(51.55940246582031,260.8528289794922)"/>
</svg>
