<?xml version="1.0" encoding="UTF-8"?>
<svg version="1.1" xmlns="http://www.w3.org/2000/svg" width="512" height="512">
<path d="M0 0 C4.23344928 3.04808348 7.15412075 6.41545005 9.125 11.25 C9.78188222 17.85294598 10.27783968 24.75753462 6.125 30.25 C1.37931824 35.06722599 -3.47398074 37.72381663 -9.765625 40.05078125 C-10.63084778 40.38362625 -11.49607056 40.71647125 -12.38751221 41.05940247 C-15.21074854 42.13938823 -18.04180999 43.19642763 -20.875 44.25 C-22.802765 44.97436511 -24.73049902 45.6988127 -26.65820312 46.42333984 C-32.97162526 48.78551032 -39.29811765 51.11168068 -45.625 53.4375 C-50.36530477 55.18424573 -55.10471219 56.93341382 -59.84375 58.68359375 C-61.66595062 59.35637863 -61.66595062 59.35637863 -63.52496338 60.04275513 C-72.62179122 63.4059534 -81.70447043 66.80575654 -90.78125 70.22265625 C-92.08611772 70.7136053 -93.3909883 71.20454672 -94.69586182 71.69548035 C-99.7561048 73.5997988 -104.8161469 75.50462706 -109.87341309 77.4168396 C-113.35731016 78.73370613 -116.84260252 80.04681804 -120.328125 81.359375 C-121.37133911 81.75524307 -122.41455322 82.15111115 -123.48937988 82.55897522 C-124.4380896 82.91559738 -125.38679932 83.27221954 -126.36425781 83.63964844 C-127.19177551 83.95238708 -128.01929321 84.26512573 -128.87188721 84.58734131 C-130.875 85.25 -130.875 85.25 -132.875 85.25 C-132.87386084 85.92548407 -132.87272168 86.60096815 -132.871548 87.29692143 C-132.80429263 127.40543551 -132.75287927 167.51394226 -132.72180401 207.62250138 C-132.71805226 212.44730896 -132.71416926 217.27211642 -132.71020508 222.09692383 C-132.70941815 223.05738388 -132.70863122 224.01784393 -132.70782044 225.00740883 C-132.69479601 240.52260309 -132.67115864 256.03776371 -132.64354161 271.55293807 C-132.61540469 287.49412231 -132.59880629 303.43528904 -132.59273452 319.37649709 C-132.58863519 329.19890005 -132.5757272 339.02120793 -132.5512506 348.84358159 C-132.5352909 355.59550264 -132.53062257 362.34737513 -132.53449587 369.09931364 C-132.53640164 372.98441647 -132.53365417 376.86935413 -132.51738358 380.75442696 C-132.35493734 421.58218407 -132.35493734 421.58218407 -139.0625 440.1875 C-139.36220703 441.04956055 -139.66191406 441.91162109 -139.97070312 442.79980469 C-144.07053583 454.13140415 -150.05617572 464.06918698 -157.875 473.25 C-158.50535156 474.03632813 -159.13570312 474.82265625 -159.78515625 475.6328125 C-177.07406422 496.2502392 -203.27734759 506.75826557 -229.61791992 509.08447266 C-259.14678468 511.25002921 -287.73029448 501.86095126 -310.24414062 482.69238281 C-332.43133872 463.06933396 -342.2159285 434.71820283 -344.09765625 405.83203125 C-344.82340674 378.41128456 -334.59067253 353.75856063 -316.875 333.25 C-316.23046875 332.50234375 -315.5859375 331.7546875 -314.921875 330.984375 C-298.13738928 313.03227288 -272.26895668 300.68971696 -247.79492188 299.04272461 C-244.56870719 298.94708682 -241.35257191 298.92125944 -238.125 298.9375 C-236.98337402 298.94168945 -235.84174805 298.94587891 -234.66552734 298.95019531 C-226.05054832 299.06517586 -218.19106714 299.87105108 -209.875 302.25 C-208.86050781 302.5284375 -207.84601563 302.806875 -206.80078125 303.09375 C-196.68248695 306.16230461 -187.27094879 310.7925451 -178.64892578 316.87963867 C-177.75344025 317.51060959 -176.85795471 318.14158051 -175.93533325 318.79167175 C-175.25542328 319.27292007 -174.57551331 319.7541684 -173.875 320.25 C-173.87868717 318.94832634 -173.88237434 317.64665268 -173.88617325 316.30553436 C-173.97282614 285.39845141 -174.03877279 254.49140127 -174.07926132 223.58422598 C-174.08426408 219.77913221 -174.08944137 215.9740387 -174.09472656 212.16894531 C-174.0957758 211.41142764 -174.09682505 210.65390998 -174.09790608 209.87343723 C-174.11530586 197.61180118 -174.14684118 185.35024024 -174.18361118 173.08864874 C-174.22103253 160.5047967 -174.24323837 147.92098397 -174.25135398 135.33707857 C-174.25683929 127.57365642 -174.27415687 119.81044655 -174.30666587 112.04708976 C-174.33033214 106.09164911 -174.33281681 100.13631712 -174.32743073 94.18082809 C-174.32853131 91.73953825 -174.33648973 89.29824039 -174.3518219 86.85699844 C-174.37173627 83.52265657 -174.36693303 80.18922145 -174.35601807 76.8548584 C-174.36766943 75.88986026 -174.3793208 74.92486213 -174.39132524 73.93062162 C-174.32392191 66.30763968 -172.40311708 60.62819195 -167.03686523 55.10913086 C-161.55870962 50.81074363 -154.76611886 48.82447214 -148.28515625 46.50390625 C-146.8341202 45.97173518 -145.38358905 45.43818566 -143.93353271 44.90335083 C-140.07176137 43.48293801 -136.2036814 42.08053006 -132.3341713 40.68136215 C-128.32047552 39.2262822 -124.3131405 37.75391098 -120.30541992 36.2824707 C-114.7585622 34.2472662 -109.21017919 32.21635751 -103.65928364 30.19219112 C-93.42551177 26.45992495 -83.21654937 22.66459411 -73.02474976 18.81912231 C-69.22773656 17.38686992 -65.42823959 15.96124 -61.62890625 14.53515625 C-60.91636185 14.26757004 -60.20381744 13.99998383 -59.46968079 13.72428894 C-51.47733407 10.72353288 -43.48118615 7.73300574 -35.48104858 4.75308228 C-33.93227998 4.17586741 -32.3837891 3.59790673 -30.83560181 3.01913452 C-28.72970726 2.23204068 -26.62281516 1.44767992 -24.515625 0.6640625 C-23.32485352 0.2201416 -22.13408203 -0.2237793 -20.90722656 -0.68115234 C-13.84766864 -3.16961809 -6.82990102 -3.64359731 0 0 Z M-287.8359375 362.40234375 C-299.15719892 376.07190175 -304.29473805 393.63325041 -302.875 411.25 C-299.68480761 429.49790045 -291.71865168 445.023803 -276.671875 456.40234375 C-261.06105687 466.71507696 -244.18896198 470.99642361 -225.55175781 467.85888672 C-208.70713214 464.0705524 -193.89571037 454.23741084 -184.40234375 439.78515625 C-174.43570802 423.24207035 -171.77107658 406.85247646 -175.90625 387.95703125 C-180.16485404 371.66100209 -189.94467231 357.57366939 -204.5625 349 C-232.79591451 333.11512795 -266.13217895 338.58009085 -287.8359375 362.40234375 Z " fill="#BDA0F8" transform="translate(502.875,2.75)"/>
<path d="M0 0 C4.43087817 5.53859771 6.9343612 10.42926347 6.57421875 17.64453125 C5.74300708 23.2026334 3.18696386 27.87553614 -0.75 31.8125 C-7.69874715 36.32874972 -14.89349066 36.8054922 -22.93878174 37.53677368 C-26.87791208 37.90018646 -30.81000292 38.32638056 -34.7421875 38.7578125 C-35.52218109 38.84333878 -36.30217468 38.92886505 -37.10580444 39.01698303 C-47.49186758 40.19138589 -57.6134007 42.29136361 -67.75 44.8125 C-68.73516602 45.05307129 -69.72033203 45.29364258 -70.73535156 45.54150391 C-114.08380065 56.31969999 -154.73245617 76.82193898 -188.75 105.8125 C-189.83397548 106.71173361 -190.91864879 107.61012649 -192.00390625 108.5078125 C-202.64244101 117.38026639 -212.85782853 126.90824102 -221.8125 137.5 C-225.26316213 141.57001175 -229.24332383 145.16465574 -234.75 145.8125 C-240.61620548 146.20358037 -245.62393076 145.91673317 -250.75 142.8125 C-255.1613079 138.72480156 -258.47908084 135.09906031 -258.98828125 128.921875 C-259.01277344 127.81328125 -259.03726562 126.7046875 -259.0625 125.5625 C-259.09988281 124.46421875 -259.13726562 123.3659375 -259.17578125 122.234375 C-257.09727732 105.53006815 -231.23088105 85.90871679 -219 75.875 C-217.25336003 74.51650224 -215.50313022 73.16261178 -213.75 71.8125 C-212.59100936 70.8679362 -211.43496445 69.91975107 -210.28125 68.96875 C-201.78785028 61.99413337 -193.0572428 55.65551394 -183.75 49.8125 C-183.01185059 49.34875977 -182.27370117 48.88501953 -181.51318359 48.40722656 C-147.68534058 27.32028882 -39.09331292 -31.09695346 0 0 Z " fill="#A9C0FA" transform="translate(258.75,67.1875)"/>
<path d="M0 0 C5.44370391 5.81297048 7.40339377 10.71456959 7.2734375 18.62890625 C6.51388744 25.21529038 2.8917949 29.60364319 -2.0234375 33.7734375 C-6.28982511 36.42095866 -10.98054692 37.27129339 -15.90234375 37.859375 C-17.02842041 38.00221924 -18.15449707 38.14506348 -19.31469727 38.29223633 C-20.51022217 38.44329834 -21.70574707 38.59436035 -22.9375 38.75 C-69.00627966 44.99585478 -111.78189981 64.61367694 -145.4765625 96.78515625 C-148 99 -148 99 -150.2109375 100.05859375 C-152.56233709 101.29590227 -152.916834 102.61614696 -154 105 C-158.53335194 110.43301199 -163.79245499 114.90794773 -171 116 C-176.57663332 116.42897179 -181.17437533 115.83860275 -186 113 C-190.83808938 108.7880163 -194.10726538 104.47232601 -195 98 C-195.12789789 84.63467047 -185.91758541 77.00146151 -177.125 67.9375 C-172.37625134 63.26353478 -167.21277592 59.14073974 -162 55 C-160.90327992 54.11243112 -159.80693735 53.22439559 -158.7109375 52.3359375 C-130.38479955 29.52955767 -35.53680401 -28.49276045 0 0 Z " fill="#ADBBFA" transform="translate(257,146)"/>
<path d="M0 0 C4.33677712 3.93850167 6.6199632 8.29464124 7.21875 14.1328125 C7.48889712 20.77392921 6.05309377 25.62273353 1.625 30.75 C-4.28727856 35.81766734 -9.67717935 36.92616849 -17.1875 38.3125 C-45.36451949 43.93607812 -69.39434327 55.43080296 -90.69140625 74.921875 C-96.55983517 80.20445399 -101.88421633 84.92368897 -110.19140625 85.02734375 C-117.04692728 84.57494896 -122.14726275 82.30708569 -126.8125 77.125 C-130.48421235 71.87969664 -131.63788208 67.37882081 -131 61 C-129.01178625 53.61860765 -125.7896904 48.87496236 -120 44 C-119.18273437 43.30261719 -118.36546875 42.60523438 -117.5234375 41.88671875 C-114.71652589 39.54492938 -111.86999106 37.26397701 -109 35 C-107.59041016 33.88238281 -107.59041016 33.88238281 -106.15234375 32.7421875 C-84.82168747 16.26332249 -26.45628083 -19.48144316 0 0 Z " fill="#B0B5FA" transform="translate(258,226)"/>
</svg>
