<?xml version="1.0" encoding="UTF-8"?>
<svg version="1.1" xmlns="http://www.w3.org/2000/svg" width="512" height="512">
<path d="M0 0 C1.4694104 0.85658203 1.4694104 0.85658203 2.96850586 1.73046875 C6.15550733 3.59578493 9.32762489 5.4849333 12.5 7.375 C14.78218557 8.71676942 17.06474135 10.05790935 19.34765625 11.3984375 C21.58688839 12.72235133 23.82519352 14.04783454 26.0625 15.375 C27.6403125 16.30820068 27.6403125 16.30820068 29.25 17.26025391 C43.8005948 25.99013775 43.8005948 25.99013775 45.5 31.375 C46.14597047 36.76810226 46.20455238 41.72083355 44.0625 46.75 C34.79509008 56.24344431 21.14930871 62.01484169 9.71533203 68.52587891 C6.84152922 70.17858828 3.99322176 71.86577574 1.15234375 73.57421875 C-0.39837299 74.48708877 -1.94914939 75.39985743 -3.5 76.3125 C-4.17345459 76.73112305 -4.84690918 77.14974609 -5.54077148 77.58105469 C-10.79452893 80.62135993 -15.48795315 81.07086915 -21.5 80.375 C-27.02787929 78.43000544 -30.00071163 75.37889336 -32.6015625 70.16796875 C-33.72165088 66.68595489 -33.69323217 63.71292122 -33.625 60.0625 C-33.60695313 58.80824219 -33.58890625 57.55398437 -33.5703125 56.26171875 C-33.53550781 54.83279297 -33.53550781 54.83279297 -33.5 53.375 C-43.21932392 53.45972367 -52.9384791 53.55472846 -62.65757465 53.66252708 C-67.1715067 53.71227706 -71.68541774 53.75860734 -76.19946289 53.796875 C-80.56326323 53.83399892 -84.92687798 53.8804288 -89.29051781 53.93306351 C-90.94767152 53.95146456 -92.6048648 53.96662403 -94.26207924 53.97834396 C-113.22794555 54.11715863 -127.72043022 56.58213644 -141.6953125 70.41015625 C-146.15476795 75.02510388 -149.95853139 80.0312037 -153.5 85.375 C-153.90508789 85.98601562 -154.31017578 86.59703125 -154.72753906 87.2265625 C-165.47602123 103.68953137 -174.09992688 121.43168602 -182.78588867 139.03857422 C-192.5867249 158.88325739 -203.17010137 178.39748201 -217.5 195.375 C-218.18707031 196.19742188 -218.87414062 197.01984375 -219.58203125 197.8671875 C-227.33508124 206.83558046 -235.76284602 214.32372715 -246.3125 219.75 C-246.90297119 220.05953613 -247.49344238 220.36907227 -248.10180664 220.68798828 C-259.5113663 226.21034128 -271.32943646 227.974687 -283.86743164 227.89257812 C-285.22935731 227.89801853 -286.59127708 227.90515178 -287.95318604 227.91381836 C-291.59942986 227.93181193 -295.24521325 227.92508971 -298.89146352 227.91230202 C-302.72830765 227.90206676 -306.56511635 227.91159481 -310.40196228 227.91784668 C-316.83111558 227.92508493 -323.26008388 227.91562841 -329.68920898 227.89648438 C-337.11095856 227.87463923 -344.5322698 227.88183733 -351.95400912 227.90379 C-358.35269191 227.92195414 -364.75124305 227.92449992 -371.14994329 227.91403532 C-374.96065716 227.90781661 -378.77116488 227.90692147 -382.58186531 227.92018127 C-386.15677052 227.93175714 -389.73110975 227.92368341 -393.30595398 227.90060425 C-395.23695606 227.89282063 -397.16800621 227.90465229 -399.09898376 227.91711426 C-405.51311184 227.85453794 -409.67284627 227.78794116 -414.5 223.375 C-418.12833663 219.55569828 -418.81000458 216.49220994 -419 211.375 C-418.81000458 206.25779006 -418.12833663 203.19430172 -414.5 199.375 C-409.27749433 195.34931855 -405.59438578 194.25228448 -399.11973572 194.24369812 C-397.4819516 194.23768585 -397.4819516 194.23768585 -395.81108093 194.23155212 C-394.02115471 194.2323452 -394.02115471 194.2323452 -392.19506836 194.2331543 C-390.25984746 194.22782064 -388.32462657 194.22248101 -386.38940632 194.21691763 C-384.310481 194.2117242 -382.23156199 194.20880807 -380.15263176 194.20633507 C-375.81001206 194.20040962 -371.46747367 194.18385273 -367.12489319 194.16499329 C-365.63582902 194.15865594 -364.1467648 194.15233032 -362.65770054 194.14601612 C-361.53909018 194.1412674 -361.53909018 194.1412674 -360.39788163 194.13642275 C-350.29171756 194.09442517 -340.18559119 194.06140109 -330.0793457 194.04907227 C-323.25799945 194.0406654 -316.43685468 194.01807624 -309.61560923 193.9797166 C-306.01080347 193.96004007 -302.40629832 193.94752304 -298.80143547 193.95255089 C-294.77091041 193.95810381 -290.74112763 193.93267585 -286.71069336 193.9050293 C-285.53157883 193.91163071 -284.35246429 193.91823212 -283.13761902 193.92503357 C-271.62320351 193.79588785 -262.59578375 190.36043105 -253.5 183.375 C-252.78328125 182.83488281 -252.0665625 182.29476562 -251.328125 181.73828125 C-228.44658145 163.03545931 -215.92480507 129.59796824 -203.19482422 103.6237793 C-192.94684222 82.76574268 -181.49803263 63.35364759 -165.5 46.375 C-164.81550781 45.61445313 -164.13101563 44.85390625 -163.42578125 44.0703125 C-149.49033073 29.1817905 -130.25075365 20.97374902 -109.94946289 20.11514282 C-105.03868115 19.99566738 -100.13026373 20.03607619 -95.21875 20.08203125 C-93.42558146 20.08764399 -91.63240824 20.09190612 -89.8392334 20.09489441 C-85.17696869 20.10621138 -80.51499568 20.13556107 -75.85284424 20.16900635 C-71.07250918 20.19999502 -66.29212584 20.21346054 -61.51171875 20.22851562 C-52.17435277 20.26044687 -42.83720088 20.31147869 -33.5 20.375 C-33.51848999 19.03586548 -33.51848999 19.03586548 -33.53735352 17.66967773 C-33.54694092 16.49864502 -33.55652832 15.3276123 -33.56640625 14.12109375 C-33.58489624 12.37977173 -33.58489624 12.37977173 -33.60375977 10.60327148 C-33.44128659 5.54825313 -32.44490649 2.43735254 -28.8828125 -1.33984375 C-19.32959834 -10.05253907 -10.05399366 -6.02029246 0 0 Z " fill="#0091FF" transform="translate(434.5,131.625)"/>
<path d="M0 0 C0.66 0 1.32 0 2 0 C2.30591064 0.56283691 2.61182129 1.12567383 2.92700195 1.70556641 C9.43483685 13.59681417 16.08098039 24.76324032 25 35 C25.67417969 35.78632813 26.34835937 36.57265625 27.04296875 37.3828125 C36.66262095 47.81567242 48.90876668 52.58500175 62.84729004 53.15821838 C64.19305445 53.17847048 65.53889678 53.19396258 66.88476562 53.20532227 C67.6272052 53.21522186 68.36964478 53.22512146 69.13458252 53.23532104 C71.55844062 53.26659673 73.98231824 53.29155734 76.40625 53.31640625 C78.0987597 53.33700519 79.7912646 53.35800238 81.48376465 53.37937927 C85.91581303 53.43429659 90.34790547 53.48383831 94.7800293 53.53222656 C99.31172559 53.58266461 103.84335873 53.63823369 108.375 53.69335938 C117.24994591 53.80056924 126.1249469 53.9020951 135 54 C134.98042236 53.04303223 134.96084473 52.08606445 134.94067383 51.10009766 C134.91783325 49.21363525 134.91783325 49.21363525 134.89453125 47.2890625 C134.87495361 46.04334473 134.85537598 44.79762695 134.83520508 43.51416016 C135.12258519 37.3859389 137.19079337 33.72095265 141.5625 29.5625 C146.46651669 26.41889956 151.34211669 26.25410222 157 27 C160.76295413 28.39954496 164.11551826 30.33010179 167.5625 32.375 C168.51632568 32.91866211 169.47015137 33.46232422 170.45288086 34.02246094 C173.31463704 35.66075598 176.15816761 37.32744217 179 39 C180.58265018 39.91524484 182.16593496 40.82939363 183.75 41.7421875 C187.21486625 43.74899309 190.65681839 45.79100296 194.08789062 47.85498047 C195.98368456 48.9902299 197.88919345 50.10752606 199.796875 51.22265625 C200.96913569 51.9186216 202.14103182 52.61520149 203.3125 53.3125 C204.31925781 53.90675781 205.32601562 54.50101562 206.36328125 55.11328125 C209.76067499 57.54430521 212.1303363 60.26067261 214 64 C214.49353045 69.404563 214.70833946 74.33694213 212.5625 79.375 C205.60579352 86.50138225 196.04487625 90.9499454 187.4375 95.8125 C184.93865798 97.22500582 182.43994475 98.6377386 179.94140625 100.05078125 C179.33470093 100.3933194 178.72799561 100.73585754 178.10290527 101.08877563 C174.69000276 103.02131914 171.31226754 104.9993005 167.96484375 107.04296875 C155.97362438 114.308043 155.97362438 114.308043 149.11328125 113.55859375 C144.03173652 112.2154128 140.91300775 110.17729946 137.625 105.9375 C135.1571103 101.47631477 134.88760386 98.35201047 134.9375 93.3125 C134.94652344 92.13300781 134.95554687 90.95351563 134.96484375 89.73828125 C134.98224609 88.38283203 134.98224609 88.38283203 135 87 C134.09814468 87.00444122 133.19628937 87.00888245 132.2671051 87.01345825 C123.69290038 87.05383251 115.1187284 87.08413372 106.54444981 87.10362434 C102.13823392 87.11398206 97.73209776 87.12799132 93.32592773 87.15087891 C89.05946528 87.17289755 84.79307862 87.18462852 80.52656364 87.18975449 C78.91339871 87.19339897 77.30023708 87.20051226 75.68710518 87.21146011 C49.35498045 87.3827669 27.26900455 83.2763528 7 65 C6.25363281 64.33613281 5.50726563 63.67226563 4.73828125 62.98828125 C-3.35075265 55.36396743 -12.15835667 45.10127025 -17 35 C-16.50228258 30.93384216 -14.27841103 27.40508798 -12.40234375 23.828125 C-12.04862198 23.1457074 -11.69490021 22.46328979 -11.33045959 21.76019287 C-10.20341293 19.58805469 -9.07054832 17.41901255 -7.9375 15.25 C-7.1708379 13.77494017 -6.40455741 12.29968194 -5.63867188 10.82421875 C-3.76352969 7.21383133 -1.88316501 3.60620879 0 0 Z " fill="#0091FF" transform="translate(266,273)"/>
<path d="M0 0 C1.52586983 -0.00639748 1.52586983 -0.00639748 3.08256531 -0.01292419 C4.74075035 -0.01224442 4.74075035 -0.01224442 6.43243408 -0.0115509 C7.60554642 -0.01490952 8.77865875 -0.01826813 9.98731995 -0.02172852 C13.20088285 -0.02959516 16.41440695 -0.03290604 19.62797832 -0.0335443 C21.64345002 -0.03425705 23.65891504 -0.03639582 25.67438507 -0.03904152 C32.72899298 -0.04829488 39.78358203 -0.05237725 46.8381958 -0.05158997 C53.37326502 -0.05099223 59.90825087 -0.06148394 66.44329906 -0.07733363 C72.08099013 -0.09051039 77.71865436 -0.09576952 83.35636067 -0.09513456 C86.71091412 -0.09488211 90.0653356 -0.09854003 93.41988373 -0.10831261 C125.89728917 -0.19400273 150.80201775 2.82512624 175.28106689 26.19621277 C181.57081418 32.59332416 186.80657358 39.72506095 191.84356689 47.13371277 C192.77169189 48.46789246 192.77169189 48.46789246 193.71856689 49.82902527 C194.84356689 52.13371277 194.84356689 52.13371277 194.63873291 53.82951355 C193.49271497 57.15039697 191.87356808 60.20225002 190.24591064 63.30558777 C189.89218887 63.98800537 189.5384671 64.67042297 189.17402649 65.3735199 C188.04697982 67.54565808 186.91411522 69.71470022 185.78106689 71.88371277 C185.01440479 73.35877259 184.24812431 74.83403083 183.48223877 76.30949402 C181.60709658 79.91988144 179.72673191 83.52750398 177.84356689 87.13371277 C177.18356689 87.13371277 176.52356689 87.13371277 175.84356689 87.13371277 C174.74957275 85.58000183 174.74957275 85.58000183 173.55841064 83.39933777 C172.8930127 82.20522278 172.8930127 82.20522278 172.21417236 80.98698425 C171.50478516 79.69836487 171.50478516 79.69836487 170.78106689 78.38371277 C166.30458924 70.46283018 161.63362019 63.17566948 155.84356689 56.13371277 C155.13844971 55.25328308 154.43333252 54.37285339 153.70684814 53.46574402 C144.08639164 42.04900839 132.6767735 35.42622843 117.84356689 34.13371277 C113.65576696 33.98946744 109.47056754 33.98995518 105.28057861 33.99186707 C104.04059113 33.98839264 102.80060364 33.98491821 101.52304077 33.9813385 C98.84069177 33.97400815 96.15839172 33.96832259 93.47603989 33.96504784 C89.23108671 33.95910147 84.98621575 33.94252971 80.74130249 33.92370605 C79.28413968 33.91737024 77.82697682 33.9110446 76.36981392 33.90472889 C75.27588526 33.89998017 75.27588526 33.89998017 74.15985703 33.89513552 C64.28800222 33.85314808 54.41618881 33.82005828 44.54425049 33.80778503 C37.86904789 33.79940129 31.19405241 33.776908 24.51895344 33.73842937 C20.99205317 33.71869609 17.46546227 33.70625535 13.93850327 33.71126366 C10.00805388 33.71677834 6.07812839 33.69149619 2.14776611 33.66374207 C0.40363434 33.67364418 0.40363434 33.67364418 -1.37573242 33.68374634 C-7.61626582 33.61128205 -11.42931844 33.35164209 -16.15643311 29.13371277 C-19.78476974 25.31441105 -20.46643769 22.25092271 -20.65643311 17.13371277 C-20.46643769 12.01650283 -19.78476974 8.95301449 -16.15643311 5.13371277 C-10.87684336 0.97743999 -6.58970201 0.01254415 0 0 Z " fill="#0091FF" transform="translate(36.15643310546875,151.8662872314453)"/>
</svg>
